<svg width="16" height="16" viewBox="0 0 16 16" fill="none" xmlns="http://www.w3.org/2000/svg">
<path d="M8 14.5C11.5899 14.5 14.5 11.5899 14.5 8C14.5 4.41015 11.5899 1.5 8 1.5C4.41015 1.5 1.5 4.41015 1.5 8C1.5 11.5899 4.41015 14.5 8 14.5Z" fill="#D94515" stroke="white" stroke-width="3"/>
<path fill-rule="evenodd" clip-rule="evenodd" d="M7.46657 5.7998L7.71101 8.3342H8.74805L8.98509 5.7998H7.46657ZM7.3999 9.3838C7.3999 9.58861 7.47891 9.75927 7.63694 9.8958C7.79496 10.0323 7.99743 10.1006 8.24435 10.1006C8.48138 10.1006 8.67768 10.0323 8.83324 9.8958C8.98879 9.75927 9.06657 9.58861 9.06657 9.3838C9.06657 9.179 8.98879 9.00834 8.83324 8.8718C8.67768 8.73527 8.48138 8.667 8.24435 8.667C7.99743 8.667 7.79496 8.73527 7.63694 8.8718C7.47891 9.00834 7.3999 9.179 7.3999 9.3838Z" fill="white"/>
</svg>
