<svg width="110" height="25" viewBox="0 0 110 25" fill="none" xmlns="http://www.w3.org/2000/svg">
<path d="M0.959712 1.912C1.48975 1.912 1.91942 1.48667 1.91942 0.96199C1.91942 0.437298 1.48975 0.0119629 0.959712 0.0119629C0.429677 0.0119629 0 0.437298 0 0.96199C0 1.48667 0.429677 1.912 0.959712 1.912Z" fill="#000F3E"/>
<path d="M6.71801 1.912C7.24805 1.912 7.67772 1.48667 7.67772 0.96199C7.67772 0.437298 7.24805 0.0119629 6.71801 0.0119629C6.18797 0.0119629 5.7583 0.437298 5.7583 0.96199C5.7583 1.48667 6.18797 1.912 6.71801 1.912Z" fill="#000F3E"/>
<path d="M12.4763 1.912C13.0064 1.912 13.436 1.48667 13.436 0.96199C13.436 0.437298 13.0064 0.0119629 12.4763 0.0119629C11.9463 0.0119629 11.5166 0.437298 11.5166 0.96199C11.5166 1.48667 11.9463 1.912 12.4763 1.912Z" fill="#000F3E"/>
<path d="M18.2346 1.912C18.7647 1.912 19.1943 1.48667 19.1943 0.96199C19.1943 0.437298 18.7647 0.0119629 18.2346 0.0119629C17.7046 0.0119629 17.2749 0.437298 17.2749 0.96199C17.2749 1.48667 17.7046 1.912 18.2346 1.912Z" fill="#000F3E"/>
<path d="M23.9927 1.72757C24.4154 1.72757 24.7582 1.38488 24.7582 0.962173C24.7582 0.539457 24.4154 0.196777 23.9927 0.196777C23.5701 0.196777 23.2273 0.539457 23.2273 0.962173C23.2273 1.38488 23.5701 1.72757 23.9927 1.72757Z" fill="#000F3E"/>
<path d="M0.959712 7.61219C1.48975 7.61219 1.91942 7.18685 1.91942 6.66217C1.91942 6.13749 1.48975 5.71216 0.959712 5.71216C0.429677 5.71216 0 6.13749 0 6.66217C0 7.18685 0.429677 7.61219 0.959712 7.61219Z" fill="#000F3E"/>
<path d="M6.71801 8.56228C7.77809 8.56228 8.63743 7.71162 8.63743 6.66226C8.63743 5.6129 7.77809 4.76221 6.71801 4.76221C5.65795 4.76221 4.79858 5.6129 4.79858 6.66226C4.79858 7.71162 5.65795 8.56228 6.71801 8.56228Z" fill="#000F3E"/>
<path d="M12.4763 8.56228C13.5364 8.56228 14.3957 7.71162 14.3957 6.66226C14.3957 5.6129 13.5364 4.76221 12.4763 4.76221C11.4163 4.76221 10.5569 5.6129 10.5569 6.66226C10.5569 7.71162 11.4163 8.56228 12.4763 8.56228Z" fill="#000F3E"/>
<path d="M18.2346 8.56228C19.2947 8.56228 20.154 7.71162 20.154 6.66226C20.154 5.6129 19.2947 4.76221 18.2346 4.76221C17.1746 4.76221 16.3152 5.6129 16.3152 6.66226C16.3152 7.71162 17.1746 8.56228 18.2346 8.56228Z" fill="#000F3E"/>
<path opacity="0.5" d="M23.9927 7.42751C24.4154 7.42751 24.7582 7.08484 24.7582 6.66211C24.7582 6.2394 24.4154 5.89673 23.9927 5.89673C23.5701 5.89673 23.2273 6.2394 23.2273 6.66211C23.2273 7.08484 23.5701 7.42751 23.9927 7.42751Z" fill="#000F3E"/>
<path d="M0.959712 13.3124C1.48975 13.3124 1.91942 12.887 1.91942 12.3624C1.91942 11.8377 1.48975 11.4124 0.959712 11.4124C0.429677 11.4124 0 11.8377 0 12.3624C0 12.887 0.429677 13.3124 0.959712 13.3124Z" fill="#000F3E"/>
<path d="M6.71801 14.2622C7.77809 14.2622 8.63743 13.4115 8.63743 12.3622C8.63743 11.3128 7.77809 10.4622 6.71801 10.4622C5.65795 10.4622 4.79858 11.3128 4.79858 12.3622C4.79858 13.4115 5.65795 14.2622 6.71801 14.2622Z" fill="#000F3E"/>
<path d="M12.4763 14.2622C13.5364 14.2622 14.3957 13.4115 14.3957 12.3622C14.3957 11.3128 13.5364 10.4622 12.4763 10.4622C11.4163 10.4622 10.5569 11.3128 10.5569 12.3622C10.5569 13.4115 11.4163 14.2622 12.4763 14.2622Z" fill="#000F3E"/>
<path opacity="0.5" d="M18.2346 13.1277C18.6574 13.1277 19 12.785 19 12.3623C19 11.9396 18.6574 11.5969 18.2346 11.5969C17.8119 11.5969 17.4692 11.9396 17.4692 12.3623C17.4692 12.785 17.8119 13.1277 18.2346 13.1277Z" fill="#000F3E"/>
<path opacity="0.3" d="M23.9927 13.1277C24.4154 13.1277 24.7582 12.785 24.7582 12.3623C24.7582 11.9396 24.4154 11.5969 23.9927 11.5969C23.5701 11.5969 23.2273 11.9396 23.2273 12.3623C23.2273 12.785 23.5701 13.1277 23.9927 13.1277Z" fill="#000F3E"/>
<path d="M0.959712 19.0123C1.48975 19.0123 1.91942 18.587 1.91942 18.0623C1.91942 17.5376 1.48975 17.1123 0.959712 17.1123C0.429677 17.1123 0 17.5376 0 18.0623C0 18.587 0.429677 19.0123 0.959712 19.0123Z" fill="#000F3E"/>
<path d="M6.71801 19.9624C7.77809 19.9624 8.63743 19.1117 8.63743 18.0624C8.63743 17.013 7.77809 16.1624 6.71801 16.1624C5.65795 16.1624 4.79858 17.013 4.79858 18.0624C4.79858 19.1117 5.65795 19.9624 6.71801 19.9624Z" fill="#000F3E"/>
<path opacity="0.5" d="M12.4763 18.8277C12.899 18.8277 13.2417 18.485 13.2417 18.0623C13.2417 17.6396 12.899 17.2969 12.4763 17.2969C12.0536 17.2969 11.7109 17.6396 11.7109 18.0623C11.7109 18.485 12.0536 18.8277 12.4763 18.8277Z" fill="#000F3E"/>
<path opacity="0.3" d="M18.2346 18.8277C18.6574 18.8277 19 18.485 19 18.0623C19 17.6396 18.6574 17.2969 18.2346 17.2969C17.8119 17.2969 17.4692 17.6396 17.4692 18.0623C17.4692 18.485 17.8119 18.8277 18.2346 18.8277Z" fill="#000F3E"/>
<path opacity="0.2" d="M23.9927 18.8277C24.4154 18.8277 24.7582 18.485 24.7582 18.0623C24.7582 17.6396 24.4154 17.2969 23.9927 17.2969C23.5701 17.2969 23.2273 17.6396 23.2273 18.0623C23.2273 18.485 23.5701 18.8277 23.9927 18.8277Z" fill="#000F3E"/>
<path d="M0.959732 24.5277C1.38245 24.5277 1.72513 24.1852 1.72513 23.7623C1.72513 23.3397 1.38245 22.9971 0.959732 22.9971C0.537015 22.9971 0.194336 23.3397 0.194336 23.7623C0.194336 24.1852 0.537015 24.5277 0.959732 24.5277Z" fill="#000F3E"/>
<path opacity="0.5" d="M6.71804 24.5277C7.14075 24.5277 7.48344 24.1852 7.48344 23.7623C7.48344 23.3397 7.14075 22.9971 6.71804 22.9971C6.29533 22.9971 5.95264 23.3397 5.95264 23.7623C5.95264 24.1852 6.29533 24.5277 6.71804 24.5277Z" fill="#000F3E"/>
<path opacity="0.3" d="M12.4763 24.5277C12.899 24.5277 13.2417 24.1852 13.2417 23.7623C13.2417 23.3397 12.899 22.9971 12.4763 22.9971C12.0536 22.9971 11.7109 23.3397 11.7109 23.7623C11.7109 24.1852 12.0536 24.5277 12.4763 24.5277Z" fill="#000F3E"/>
<path opacity="0.2" d="M18.2346 24.5277C18.6574 24.5277 19 24.1852 19 23.7623C19 23.3397 18.6574 22.9971 18.2346 22.9971C17.8119 22.9971 17.4692 23.3397 17.4692 23.7623C17.4692 24.1852 17.8119 24.5277 18.2346 24.5277Z" fill="#000F3E"/>
<path opacity="0.1" d="M23.9927 24.5277C24.4154 24.5277 24.7582 24.1852 24.7582 23.7623C24.7582 23.3397 24.4154 22.9971 23.9927 22.9971C23.5701 22.9971 23.2273 23.3397 23.2273 23.7623C23.2273 24.1852 23.5701 24.5277 23.9927 24.5277Z" fill="#000F3E"/>
<path fill-rule="evenodd" clip-rule="evenodd" d="M41.2676 19.725V4.99976H51.3446V7.78332H44.6557V10.8644H50.6063V13.6479H44.6557V19.725H41.2676ZM55.4233 4.99976H58.7823V19.725H55.4233V4.99976ZM71.1281 14.7316C72.2377 16.3748 73.2689 18.0393 74.222 19.725H77.0169V4.99976H73.7098V13.6904C73.1977 12.9255 72.6501 12.1287 72.0669 11.3C71.4837 10.4713 70.8971 9.67092 70.3067 8.89888C69.7166 8.12684 69.1368 7.40086 68.568 6.7209C67.9989 6.04094 67.4797 5.46722 67.0104 4.99976H64.3008V19.725H67.5864V10.0782C68.8381 11.5372 70.0188 13.0884 71.1281 14.7316ZM93.3321 4.99976V7.82582H88.8767V19.725H85.5511V7.82582H81.0956V4.99976H93.3321ZM104.714 8.03832C104.173 9.04407 103.602 10.0498 103.004 11.0556C102.405 10.0498 101.843 9.04407 101.315 8.03832C100.788 7.03254 100.296 6.0197 99.8403 4.99976H95.9712C96.7835 6.58632 97.6279 8.13037 98.5042 9.63195C99.3808 11.1335 100.304 12.6351 101.272 14.1367V19.725H104.607V14.0942C105.576 12.5926 106.495 11.0981 107.365 9.61071C108.234 8.1233 109.075 6.58632 109.887 4.99976H106.21C105.754 6.0197 105.256 7.03254 104.714 8.03832Z" fill="#000F3E"/>
</svg>
