<svg width="321" height="228" viewBox="0 0 321 228" fill="none" xmlns="http://www.w3.org/2000/svg">
<g filter="url(#filter0_d)">
<rect x="4" y="2" width="313" height="220" rx="1" fill="white"/>
</g>
<path fill-rule="evenodd" clip-rule="evenodd" d="M141 174C144.314 174 147 171.314 147 168C147 164.686 144.314 162 141 162C137.686 162 135 164.686 135 168C135 171.314 137.686 174 141 174Z" fill="#D6DFE7"/>
<path fill-rule="evenodd" clip-rule="evenodd" d="M162 174C165.314 174 168 171.314 168 168C168 164.686 165.314 162 162 162C158.686 162 156 164.686 156 168C156 171.314 158.686 174 162 174Z" fill="#D6DFE7"/>
<path fill-rule="evenodd" clip-rule="evenodd" d="M182 174C185.314 174 188 171.314 188 168C188 164.686 185.314 162 182 162C178.686 162 176 164.686 176 168C176 171.314 178.686 174 182 174Z" fill="#D6DFE7"/>
<rect x="60" y="120" width="202" height="6" fill="#D6DFE7"/>
<rect x="141" y="86" width="40" height="6" fill="#D6DFE7"/>
<rect x="60" y="134" width="202" height="6" fill="#D6DFE7"/>
<rect x="141" y="100" width="40" height="6" fill="#D6DFE7"/>
<rect x="60" y="148" width="202" height="6" fill="#D6DFE7"/>
<path d="M190.5 48C190.5 64.2924 177.292 77.5 161 77.5C144.708 77.5 131.5 64.2924 131.5 48C131.5 31.7076 144.708 18.5 161 18.5C177.292 18.5 190.5 31.7076 190.5 48Z" fill="#F2F5F8" stroke="#E0E5EB"/>
<path d="M149.195 51V43.8418H151.896C152.371 43.8418 152.734 43.8646 152.984 43.9102C153.336 43.9688 153.631 44.0811 153.868 44.2471C154.106 44.4098 154.296 44.6393 154.439 44.9355C154.586 45.2318 154.659 45.5573 154.659 45.9121C154.659 46.5208 154.465 47.0368 154.078 47.46C153.691 47.8799 152.991 48.0898 151.979 48.0898H150.143V51H149.195ZM150.143 47.2451H151.993C152.605 47.2451 153.04 47.1312 153.297 46.9033C153.554 46.6755 153.683 46.3548 153.683 45.9414C153.683 45.6419 153.606 45.3864 153.453 45.1748C153.303 44.96 153.105 44.8184 152.857 44.75C152.698 44.7077 152.403 44.6865 151.974 44.6865H150.143V47.2451ZM155.753 51V43.8418H156.632V46.4102C157.042 45.9349 157.56 45.6973 158.185 45.6973C158.569 45.6973 158.902 45.7738 159.186 45.9268C159.469 46.0765 159.671 46.2848 159.791 46.5518C159.915 46.8187 159.977 47.2061 159.977 47.7139V51H159.098V47.7139C159.098 47.2744 159.002 46.9554 158.81 46.7568C158.621 46.555 158.352 46.4541 158.004 46.4541C157.743 46.4541 157.498 46.5225 157.267 46.6592C157.039 46.7926 156.876 46.9749 156.778 47.2061C156.681 47.4372 156.632 47.7562 156.632 48.1631V51H155.753ZM160.992 48.4072C160.992 47.4469 161.259 46.7357 161.793 46.2734C162.239 45.8893 162.783 45.6973 163.424 45.6973C164.137 45.6973 164.719 45.9316 165.172 46.4004C165.624 46.8659 165.851 47.5104 165.851 48.334C165.851 49.0013 165.75 49.527 165.548 49.9111C165.349 50.292 165.058 50.5882 164.674 50.7998C164.293 51.0114 163.876 51.1172 163.424 51.1172C162.698 51.1172 162.11 50.8844 161.661 50.4189C161.215 49.9535 160.992 49.2829 160.992 48.4072ZM161.896 48.4072C161.896 49.0713 162.04 49.5693 162.33 49.9014C162.62 50.2301 162.984 50.3945 163.424 50.3945C163.86 50.3945 164.223 50.2285 164.513 49.8965C164.802 49.5645 164.947 49.0583 164.947 48.3779C164.947 47.7367 164.801 47.2516 164.508 46.9229C164.218 46.5908 163.857 46.4248 163.424 46.4248C162.984 46.4248 162.62 46.5892 162.33 46.918C162.04 47.2467 161.896 47.7432 161.896 48.4072ZM168.805 50.2139L168.932 50.9902C168.684 51.0423 168.463 51.0684 168.268 51.0684C167.949 51.0684 167.701 51.0179 167.525 50.917C167.35 50.8161 167.226 50.6842 167.154 50.5215C167.083 50.3555 167.047 50.0088 167.047 49.4814V46.498H166.402V45.8145H167.047V44.5303L167.921 44.0029V45.8145H168.805V46.498H167.921V49.5303C167.921 49.7809 167.936 49.9421 167.965 50.0137C167.997 50.0853 168.048 50.1423 168.116 50.1846C168.188 50.2269 168.289 50.248 168.419 50.248C168.517 50.248 168.645 50.2367 168.805 50.2139ZM169.342 48.4072C169.342 47.4469 169.609 46.7357 170.143 46.2734C170.589 45.8893 171.132 45.6973 171.773 45.6973C172.486 45.6973 173.069 45.9316 173.521 46.4004C173.974 46.8659 174.2 47.5104 174.2 48.334C174.2 49.0013 174.099 49.527 173.897 49.9111C173.699 50.292 173.408 50.5882 173.023 50.7998C172.643 51.0114 172.226 51.1172 171.773 51.1172C171.048 51.1172 170.46 50.8844 170.011 50.4189C169.565 49.9535 169.342 49.2829 169.342 48.4072ZM170.245 48.4072C170.245 49.0713 170.39 49.5693 170.68 49.9014C170.969 50.2301 171.334 50.3945 171.773 50.3945C172.21 50.3945 172.573 50.2285 172.862 49.8965C173.152 49.5645 173.297 49.0583 173.297 48.3779C173.297 47.7367 173.15 47.2516 172.857 46.9229C172.568 46.5908 172.206 46.4248 171.773 46.4248C171.334 46.4248 170.969 46.5892 170.68 46.918C170.39 47.2467 170.245 47.7432 170.245 48.4072Z" fill="#A6B2BD"/>
<g clip-path="url(#clip0)">
<rect x="118" y="180" width="85" height="27" rx="1" fill="#F2F5F8" stroke="#E0E5EB" stroke-width="0.75"/>
<path d="M128.91 195V187.842H129.857V194.155H133.383V195H128.91ZM134.076 192.407C134.076 191.447 134.343 190.736 134.877 190.273C135.323 189.889 135.867 189.697 136.508 189.697C137.221 189.697 137.803 189.932 138.256 190.4C138.708 190.866 138.935 191.51 138.935 192.334C138.935 193.001 138.834 193.527 138.632 193.911C138.433 194.292 138.142 194.588 137.758 194.8C137.377 195.011 136.96 195.117 136.508 195.117C135.782 195.117 135.194 194.884 134.745 194.419C134.299 193.953 134.076 193.283 134.076 192.407ZM134.979 192.407C134.979 193.071 135.124 193.569 135.414 193.901C135.704 194.23 136.068 194.395 136.508 194.395C136.944 194.395 137.307 194.229 137.597 193.896C137.886 193.564 138.031 193.058 138.031 192.378C138.031 191.737 137.885 191.252 137.592 190.923C137.302 190.591 136.941 190.425 136.508 190.425C136.068 190.425 135.704 190.589 135.414 190.918C135.124 191.247 134.979 191.743 134.979 192.407ZM139.809 195.43L140.663 195.557C140.699 195.82 140.798 196.012 140.961 196.133C141.179 196.296 141.477 196.377 141.854 196.377C142.261 196.377 142.576 196.296 142.797 196.133C143.018 195.97 143.168 195.742 143.246 195.449C143.292 195.27 143.313 194.894 143.31 194.321C142.925 194.774 142.447 195 141.874 195C141.161 195 140.609 194.743 140.219 194.229C139.828 193.714 139.633 193.097 139.633 192.378C139.633 191.883 139.722 191.427 139.901 191.011C140.08 190.591 140.339 190.267 140.678 190.039C141.02 189.811 141.42 189.697 141.879 189.697C142.491 189.697 142.995 189.945 143.393 190.439V189.814H144.203V194.297C144.203 195.104 144.12 195.675 143.954 196.011C143.791 196.349 143.531 196.616 143.173 196.812C142.818 197.007 142.38 197.104 141.859 197.104C141.241 197.104 140.741 196.965 140.36 196.685C139.979 196.408 139.796 195.99 139.809 195.43ZM140.536 192.314C140.536 192.995 140.671 193.491 140.941 193.804C141.212 194.116 141.55 194.272 141.957 194.272C142.361 194.272 142.699 194.118 142.973 193.809C143.246 193.496 143.383 193.008 143.383 192.344C143.383 191.709 143.241 191.23 142.958 190.908C142.678 190.586 142.34 190.425 141.942 190.425C141.552 190.425 141.22 190.584 140.946 190.903C140.673 191.219 140.536 191.689 140.536 192.314ZM145.209 192.407C145.209 191.447 145.476 190.736 146.01 190.273C146.456 189.889 146.999 189.697 147.641 189.697C148.354 189.697 148.936 189.932 149.389 190.4C149.841 190.866 150.067 191.51 150.067 192.334C150.067 193.001 149.966 193.527 149.765 193.911C149.566 194.292 149.275 194.588 148.891 194.8C148.51 195.011 148.093 195.117 147.641 195.117C146.915 195.117 146.327 194.884 145.878 194.419C145.432 193.953 145.209 193.283 145.209 192.407ZM146.112 192.407C146.112 193.071 146.257 193.569 146.547 193.901C146.837 194.23 147.201 194.395 147.641 194.395C148.077 194.395 148.44 194.229 148.729 193.896C149.019 193.564 149.164 193.058 149.164 192.378C149.164 191.737 149.018 191.252 148.725 190.923C148.435 190.591 148.074 190.425 147.641 190.425C147.201 190.425 146.837 190.589 146.547 190.918C146.257 191.247 146.112 191.743 146.112 192.407ZM157.27 193.101L158.134 193.213C158.039 193.809 157.797 194.276 157.406 194.614C157.019 194.95 156.542 195.117 155.976 195.117C155.266 195.117 154.695 194.886 154.262 194.424C153.832 193.958 153.617 193.293 153.617 192.427C153.617 191.867 153.71 191.377 153.896 190.957C154.081 190.537 154.363 190.223 154.74 190.015C155.121 189.803 155.535 189.697 155.98 189.697C156.544 189.697 157.004 189.84 157.362 190.127C157.72 190.41 157.95 190.814 158.051 191.338L157.196 191.47C157.115 191.121 156.97 190.859 156.762 190.684C156.557 190.508 156.308 190.42 156.015 190.42C155.572 190.42 155.212 190.579 154.936 190.898C154.659 191.214 154.521 191.715 154.521 192.402C154.521 193.099 154.654 193.605 154.921 193.921C155.188 194.237 155.536 194.395 155.966 194.395C156.311 194.395 156.599 194.289 156.83 194.077C157.061 193.866 157.208 193.54 157.27 193.101ZM158.559 192.407C158.559 191.447 158.826 190.736 159.359 190.273C159.805 189.889 160.349 189.697 160.99 189.697C161.703 189.697 162.286 189.932 162.738 190.4C163.191 190.866 163.417 191.51 163.417 192.334C163.417 193.001 163.316 193.527 163.114 193.911C162.916 194.292 162.624 194.588 162.24 194.8C161.859 195.011 161.443 195.117 160.99 195.117C160.264 195.117 159.677 194.884 159.228 194.419C158.782 193.953 158.559 193.283 158.559 192.407ZM159.462 192.407C159.462 193.071 159.607 193.569 159.896 193.901C160.186 194.23 160.551 194.395 160.99 194.395C161.426 194.395 161.789 194.229 162.079 193.896C162.369 193.564 162.514 193.058 162.514 192.378C162.514 191.737 162.367 191.252 162.074 190.923C161.785 190.591 161.423 190.425 160.99 190.425C160.551 190.425 160.186 190.589 159.896 190.918C159.607 191.247 159.462 191.743 159.462 192.407ZM164.452 195V189.814H165.238V190.542C165.401 190.288 165.618 190.085 165.888 189.932C166.158 189.775 166.465 189.697 166.811 189.697C167.195 189.697 167.509 189.777 167.753 189.937C168 190.096 168.174 190.319 168.275 190.605C168.686 190 169.219 189.697 169.877 189.697C170.391 189.697 170.787 189.84 171.063 190.127C171.34 190.41 171.479 190.848 171.479 191.44V195H170.604V191.733C170.604 191.382 170.575 191.13 170.517 190.977C170.461 190.82 170.359 190.695 170.209 190.601C170.059 190.506 169.883 190.459 169.682 190.459C169.317 190.459 169.014 190.581 168.773 190.825C168.533 191.066 168.412 191.453 168.412 191.987V195H167.533V191.631C167.533 191.24 167.462 190.947 167.318 190.752C167.175 190.557 166.941 190.459 166.615 190.459C166.368 190.459 166.138 190.524 165.927 190.654C165.718 190.785 165.567 190.975 165.473 191.226C165.378 191.476 165.331 191.838 165.331 192.31V195H164.452ZM172.782 196.987V189.814H173.583V190.488C173.772 190.225 173.985 190.028 174.223 189.897C174.46 189.764 174.748 189.697 175.087 189.697C175.53 189.697 175.92 189.811 176.259 190.039C176.597 190.267 176.853 190.589 177.025 191.006C177.198 191.419 177.284 191.873 177.284 192.368C177.284 192.899 177.188 193.377 176.996 193.804C176.807 194.227 176.531 194.552 176.166 194.78C175.805 195.005 175.424 195.117 175.023 195.117C174.73 195.117 174.467 195.055 174.232 194.932C174.001 194.808 173.811 194.652 173.661 194.463V196.987H172.782ZM173.578 192.437C173.578 193.104 173.713 193.597 173.983 193.916C174.254 194.235 174.581 194.395 174.965 194.395C175.355 194.395 175.689 194.23 175.966 193.901C176.246 193.569 176.386 193.057 176.386 192.363C176.386 191.702 176.249 191.208 175.976 190.879C175.705 190.55 175.382 190.386 175.004 190.386C174.63 190.386 174.298 190.562 174.008 190.913C173.721 191.261 173.578 191.769 173.578 192.437ZM181.732 194.36C181.407 194.637 181.093 194.832 180.79 194.946C180.491 195.06 180.168 195.117 179.823 195.117C179.254 195.117 178.816 194.979 178.51 194.702C178.204 194.422 178.051 194.066 178.051 193.633C178.051 193.379 178.108 193.148 178.222 192.939C178.339 192.728 178.49 192.559 178.676 192.432C178.865 192.305 179.076 192.209 179.311 192.144C179.483 192.098 179.743 192.054 180.092 192.012C180.801 191.927 181.324 191.826 181.659 191.709C181.662 191.589 181.664 191.512 181.664 191.479C181.664 191.121 181.581 190.869 181.415 190.723C181.19 190.524 180.857 190.425 180.414 190.425C180.001 190.425 179.695 190.498 179.496 190.645C179.301 190.788 179.156 191.043 179.062 191.411L178.202 191.294C178.28 190.926 178.409 190.63 178.588 190.405C178.767 190.177 179.026 190.003 179.364 189.883C179.703 189.759 180.095 189.697 180.541 189.697C180.984 189.697 181.343 189.749 181.62 189.854C181.897 189.958 182.1 190.09 182.23 190.249C182.361 190.405 182.452 190.604 182.504 190.845C182.533 190.994 182.548 191.265 182.548 191.655V192.827C182.548 193.644 182.566 194.162 182.602 194.38C182.641 194.595 182.715 194.801 182.826 195H181.908C181.817 194.818 181.758 194.604 181.732 194.36ZM181.659 192.397C181.34 192.528 180.862 192.638 180.224 192.729C179.862 192.782 179.607 192.84 179.457 192.905C179.307 192.97 179.192 193.066 179.11 193.193C179.029 193.317 178.988 193.455 178.988 193.608C178.988 193.843 179.076 194.038 179.252 194.194C179.431 194.351 179.691 194.429 180.033 194.429C180.372 194.429 180.673 194.355 180.937 194.209C181.2 194.059 181.394 193.856 181.518 193.599C181.612 193.4 181.659 193.107 181.659 192.72V192.397ZM183.915 195V189.814H184.706V190.552C185.087 189.982 185.637 189.697 186.356 189.697C186.669 189.697 186.955 189.754 187.216 189.868C187.479 189.979 187.676 190.125 187.807 190.308C187.937 190.49 188.028 190.706 188.08 190.957C188.113 191.12 188.129 191.405 188.129 191.812V195H187.25V191.846C187.25 191.488 187.216 191.221 187.147 191.045C187.079 190.866 186.957 190.724 186.781 190.62C186.609 190.513 186.405 190.459 186.171 190.459C185.797 190.459 185.473 190.578 185.199 190.815C184.929 191.053 184.794 191.504 184.794 192.168V195H183.915ZM189.442 196.997L189.345 196.172C189.537 196.224 189.704 196.25 189.848 196.25C190.043 196.25 190.199 196.217 190.316 196.152C190.434 196.087 190.53 195.996 190.604 195.879C190.66 195.791 190.749 195.573 190.873 195.225C190.889 195.176 190.915 195.104 190.951 195.01L188.983 189.814H189.931L191.01 192.817C191.15 193.198 191.275 193.599 191.386 194.019C191.487 193.615 191.607 193.221 191.747 192.837L192.855 189.814H193.734L191.762 195.088C191.55 195.658 191.386 196.05 191.269 196.265C191.112 196.554 190.933 196.766 190.731 196.899C190.53 197.036 190.289 197.104 190.009 197.104C189.84 197.104 189.651 197.069 189.442 196.997Z" fill="#A6B2BD"/>
</g>
<defs>
<filter id="filter0_d" x="0" y="0" width="321" height="228" filterUnits="userSpaceOnUse" color-interpolation-filters="sRGB">
<feFlood flood-opacity="0" result="BackgroundImageFix"/>
<feColorMatrix in="SourceAlpha" type="matrix" values="0 0 0 0 0 0 0 0 0 0 0 0 0 0 0 0 0 0 127 0"/>
<feOffset dy="2"/>
<feGaussianBlur stdDeviation="2"/>
<feColorMatrix type="matrix" values="0 0 0 0 0.129604 0 0 0 0 0.114743 0 0 0 0 0.182631 0 0 0 0.0810752 0"/>
<feBlend mode="normal" in2="BackgroundImageFix" result="effect1_dropShadow"/>
<feBlend mode="normal" in="SourceGraphic" in2="effect1_dropShadow" result="shape"/>
</filter>
<clipPath id="clip0">
<rect width="85" height="27" fill="white" transform="translate(118 180)"/>
</clipPath>
</defs>
</svg>
