<svg width="321" height="228" viewBox="0 0 321 228" fill="none" xmlns="http://www.w3.org/2000/svg">
<g>
<rect x="4" y="2" width="313" height="220" rx="1" fill="white"/>
</g>
<path fill-rule="evenodd" clip-rule="evenodd" d="M46 179C49.3137 179 52 176.314 52 173C52 169.686 49.3137 167 46 167C42.6863 167 40 169.686 40 173C40 176.314 42.6863 179 46 179Z" fill="#D6DFE7"/>
<path fill-rule="evenodd" clip-rule="evenodd" d="M67 179C70.3137 179 73 176.314 73 173C73 169.686 70.3137 167 67 167C63.6863 167 61 169.686 61 173C61 176.314 63.6863 179 67 179Z" fill="#D6DFE7"/>
<path fill-rule="evenodd" clip-rule="evenodd" d="M87 179C90.3137 179 93 176.314 93 173C93 169.686 90.3137 167 87 167C83.6863 167 81 169.686 81 173C81 176.314 83.6863 179 87 179Z" fill="#D6DFE7"/>
<rect x="173" y="111" width="110" height="6" fill="#D6DFE7"/>
<rect x="173" y="125" width="110" height="6" fill="#D6DFE7"/>
<rect x="173" y="139" width="110" height="6" fill="#D6DFE7"/>
<rect x="38" y="111" width="110" height="6" fill="#D6DFE7"/>
<rect x="38" y="125" width="110" height="6" fill="#D6DFE7"/>
<rect x="38" y="139" width="110" height="6" fill="#D6DFE7"/>
<path d="M190.5 61C190.5 77.2924 177.292 90.5 161 90.5C144.708 90.5 131.5 77.2924 131.5 61C131.5 44.7076 144.708 31.5 161 31.5C177.292 31.5 190.5 44.7076 190.5 61Z" fill="#F2F5F8" stroke="#E0E5EB"/>
<path d="M149.195 64V56.8418H151.896C152.371 56.8418 152.734 56.8646 152.984 56.9102C153.336 56.9688 153.631 57.0811 153.868 57.2471C154.106 57.4098 154.296 57.6393 154.439 57.9355C154.586 58.2318 154.659 58.5573 154.659 58.9121C154.659 59.5208 154.465 60.0368 154.078 60.46C153.691 60.8799 152.991 61.0898 151.979 61.0898H150.143V64H149.195ZM150.143 60.2451H151.993C152.605 60.2451 153.04 60.1312 153.297 59.9033C153.554 59.6755 153.683 59.3548 153.683 58.9414C153.683 58.6419 153.606 58.3864 153.453 58.1748C153.303 57.96 153.105 57.8184 152.857 57.75C152.698 57.7077 152.403 57.6865 151.974 57.6865H150.143V60.2451ZM155.753 64V56.8418H156.632V59.4102C157.042 58.9349 157.56 58.6973 158.185 58.6973C158.569 58.6973 158.902 58.7738 159.186 58.9268C159.469 59.0765 159.671 59.2848 159.791 59.5518C159.915 59.8187 159.977 60.2061 159.977 60.7139V64H159.098V60.7139C159.098 60.2744 159.002 59.9554 158.81 59.7568C158.621 59.555 158.352 59.4541 158.004 59.4541C157.743 59.4541 157.498 59.5225 157.267 59.6592C157.039 59.7926 156.876 59.9749 156.778 60.2061C156.681 60.4372 156.632 60.7562 156.632 61.1631V64H155.753ZM160.992 61.4072C160.992 60.4469 161.259 59.7357 161.793 59.2734C162.239 58.8893 162.783 58.6973 163.424 58.6973C164.137 58.6973 164.719 58.9316 165.172 59.4004C165.624 59.8659 165.851 60.5104 165.851 61.334C165.851 62.0013 165.75 62.527 165.548 62.9111C165.349 63.292 165.058 63.5882 164.674 63.7998C164.293 64.0114 163.876 64.1172 163.424 64.1172C162.698 64.1172 162.11 63.8844 161.661 63.4189C161.215 62.9535 160.992 62.2829 160.992 61.4072ZM161.896 61.4072C161.896 62.0713 162.04 62.5693 162.33 62.9014C162.62 63.2301 162.984 63.3945 163.424 63.3945C163.86 63.3945 164.223 63.2285 164.513 62.8965C164.802 62.5645 164.947 62.0583 164.947 61.3779C164.947 60.7367 164.801 60.2516 164.508 59.9229C164.218 59.5908 163.857 59.4248 163.424 59.4248C162.984 59.4248 162.62 59.5892 162.33 59.918C162.04 60.2467 161.896 60.7432 161.896 61.4072ZM168.805 63.2139L168.932 63.9902C168.684 64.0423 168.463 64.0684 168.268 64.0684C167.949 64.0684 167.701 64.0179 167.525 63.917C167.35 63.8161 167.226 63.6842 167.154 63.5215C167.083 63.3555 167.047 63.0088 167.047 62.4814V59.498H166.402V58.8145H167.047V57.5303L167.921 57.0029V58.8145H168.805V59.498H167.921V62.5303C167.921 62.7809 167.936 62.9421 167.965 63.0137C167.997 63.0853 168.048 63.1423 168.116 63.1846C168.188 63.2269 168.289 63.248 168.419 63.248C168.517 63.248 168.645 63.2367 168.805 63.2139ZM169.342 61.4072C169.342 60.4469 169.609 59.7357 170.143 59.2734C170.589 58.8893 171.132 58.6973 171.773 58.6973C172.486 58.6973 173.069 58.9316 173.521 59.4004C173.974 59.8659 174.2 60.5104 174.2 61.334C174.2 62.0013 174.099 62.527 173.897 62.9111C173.699 63.292 173.408 63.5882 173.023 63.7998C172.643 64.0114 172.226 64.1172 171.773 64.1172C171.048 64.1172 170.46 63.8844 170.011 63.4189C169.565 62.9535 169.342 62.2829 169.342 61.4072ZM170.245 61.4072C170.245 62.0713 170.39 62.5693 170.68 62.9014C170.969 63.2301 171.334 63.3945 171.773 63.3945C172.21 63.3945 172.573 63.2285 172.862 62.8965C173.152 62.5645 173.297 62.0583 173.297 61.3779C173.297 60.7367 173.15 60.2516 172.857 59.9229C172.568 59.5908 172.206 59.4248 171.773 59.4248C171.334 59.4248 170.969 59.5892 170.68 59.918C170.39 60.2467 170.245 60.7432 170.245 61.4072Z" fill="#A6B2BD"/>
<g clip-path="url(#clip0)">
<rect x="198" y="159" width="85" height="27" rx="1" fill="#F2F5F8" stroke="#E0E5EB" stroke-width="0.75"/>
<path d="M208.91 174V166.842H209.857V173.155H213.383V174H208.91ZM214.076 171.407C214.076 170.447 214.343 169.736 214.877 169.273C215.323 168.889 215.867 168.697 216.508 168.697C217.221 168.697 217.803 168.932 218.256 169.4C218.708 169.866 218.935 170.51 218.935 171.334C218.935 172.001 218.834 172.527 218.632 172.911C218.433 173.292 218.142 173.588 217.758 173.8C217.377 174.011 216.96 174.117 216.508 174.117C215.782 174.117 215.194 173.884 214.745 173.419C214.299 172.953 214.076 172.283 214.076 171.407ZM214.979 171.407C214.979 172.071 215.124 172.569 215.414 172.901C215.704 173.23 216.068 173.395 216.508 173.395C216.944 173.395 217.307 173.229 217.597 172.896C217.886 172.564 218.031 172.058 218.031 171.378C218.031 170.737 217.885 170.252 217.592 169.923C217.302 169.591 216.941 169.425 216.508 169.425C216.068 169.425 215.704 169.589 215.414 169.918C215.124 170.247 214.979 170.743 214.979 171.407ZM219.809 174.43L220.663 174.557C220.699 174.82 220.798 175.012 220.961 175.133C221.179 175.296 221.477 175.377 221.854 175.377C222.261 175.377 222.576 175.296 222.797 175.133C223.018 174.97 223.168 174.742 223.246 174.449C223.292 174.27 223.313 173.894 223.31 173.321C222.925 173.774 222.447 174 221.874 174C221.161 174 220.609 173.743 220.219 173.229C219.828 172.714 219.633 172.097 219.633 171.378C219.633 170.883 219.722 170.427 219.901 170.011C220.08 169.591 220.339 169.267 220.678 169.039C221.02 168.811 221.42 168.697 221.879 168.697C222.491 168.697 222.995 168.945 223.393 169.439V168.814H224.203V173.297C224.203 174.104 224.12 174.675 223.954 175.011C223.791 175.349 223.531 175.616 223.173 175.812C222.818 176.007 222.38 176.104 221.859 176.104C221.241 176.104 220.741 175.965 220.36 175.685C219.979 175.408 219.796 174.99 219.809 174.43ZM220.536 171.314C220.536 171.995 220.671 172.491 220.941 172.804C221.212 173.116 221.55 173.272 221.957 173.272C222.361 173.272 222.699 173.118 222.973 172.809C223.246 172.496 223.383 172.008 223.383 171.344C223.383 170.709 223.241 170.23 222.958 169.908C222.678 169.586 222.34 169.425 221.942 169.425C221.552 169.425 221.22 169.584 220.946 169.903C220.673 170.219 220.536 170.689 220.536 171.314ZM225.209 171.407C225.209 170.447 225.476 169.736 226.01 169.273C226.456 168.889 226.999 168.697 227.641 168.697C228.354 168.697 228.936 168.932 229.389 169.4C229.841 169.866 230.067 170.51 230.067 171.334C230.067 172.001 229.966 172.527 229.765 172.911C229.566 173.292 229.275 173.588 228.891 173.8C228.51 174.011 228.093 174.117 227.641 174.117C226.915 174.117 226.327 173.884 225.878 173.419C225.432 172.953 225.209 172.283 225.209 171.407ZM226.112 171.407C226.112 172.071 226.257 172.569 226.547 172.901C226.837 173.23 227.201 173.395 227.641 173.395C228.077 173.395 228.44 173.229 228.729 172.896C229.019 172.564 229.164 172.058 229.164 171.378C229.164 170.737 229.018 170.252 228.725 169.923C228.435 169.591 228.074 169.425 227.641 169.425C227.201 169.425 226.837 169.589 226.547 169.918C226.257 170.247 226.112 170.743 226.112 171.407ZM237.27 172.101L238.134 172.213C238.039 172.809 237.797 173.276 237.406 173.614C237.019 173.95 236.542 174.117 235.976 174.117C235.266 174.117 234.695 173.886 234.262 173.424C233.832 172.958 233.617 172.293 233.617 171.427C233.617 170.867 233.71 170.377 233.896 169.957C234.081 169.537 234.363 169.223 234.74 169.015C235.121 168.803 235.535 168.697 235.98 168.697C236.544 168.697 237.004 168.84 237.362 169.127C237.72 169.41 237.95 169.814 238.051 170.338L237.196 170.47C237.115 170.121 236.97 169.859 236.762 169.684C236.557 169.508 236.308 169.42 236.015 169.42C235.572 169.42 235.212 169.579 234.936 169.898C234.659 170.214 234.521 170.715 234.521 171.402C234.521 172.099 234.654 172.605 234.921 172.921C235.188 173.237 235.536 173.395 235.966 173.395C236.311 173.395 236.599 173.289 236.83 173.077C237.061 172.866 237.208 172.54 237.27 172.101ZM238.559 171.407C238.559 170.447 238.826 169.736 239.359 169.273C239.805 168.889 240.349 168.697 240.99 168.697C241.703 168.697 242.286 168.932 242.738 169.4C243.191 169.866 243.417 170.51 243.417 171.334C243.417 172.001 243.316 172.527 243.114 172.911C242.916 173.292 242.624 173.588 242.24 173.8C241.859 174.011 241.443 174.117 240.99 174.117C240.264 174.117 239.677 173.884 239.228 173.419C238.782 172.953 238.559 172.283 238.559 171.407ZM239.462 171.407C239.462 172.071 239.607 172.569 239.896 172.901C240.186 173.23 240.551 173.395 240.99 173.395C241.426 173.395 241.789 173.229 242.079 172.896C242.369 172.564 242.514 172.058 242.514 171.378C242.514 170.737 242.367 170.252 242.074 169.923C241.785 169.591 241.423 169.425 240.99 169.425C240.551 169.425 240.186 169.589 239.896 169.918C239.607 170.247 239.462 170.743 239.462 171.407ZM244.452 174V168.814H245.238V169.542C245.401 169.288 245.618 169.085 245.888 168.932C246.158 168.775 246.465 168.697 246.811 168.697C247.195 168.697 247.509 168.777 247.753 168.937C248 169.096 248.174 169.319 248.275 169.605C248.686 169 249.219 168.697 249.877 168.697C250.391 168.697 250.787 168.84 251.063 169.127C251.34 169.41 251.479 169.848 251.479 170.44V174H250.604V170.733C250.604 170.382 250.575 170.13 250.517 169.977C250.461 169.82 250.359 169.695 250.209 169.601C250.059 169.506 249.883 169.459 249.682 169.459C249.317 169.459 249.014 169.581 248.773 169.825C248.533 170.066 248.412 170.453 248.412 170.987V174H247.533V170.631C247.533 170.24 247.462 169.947 247.318 169.752C247.175 169.557 246.941 169.459 246.615 169.459C246.368 169.459 246.138 169.524 245.927 169.654C245.718 169.785 245.567 169.975 245.473 170.226C245.378 170.476 245.331 170.838 245.331 171.31V174H244.452ZM252.782 175.987V168.814H253.583V169.488C253.772 169.225 253.985 169.028 254.223 168.897C254.46 168.764 254.748 168.697 255.087 168.697C255.53 168.697 255.92 168.811 256.259 169.039C256.597 169.267 256.853 169.589 257.025 170.006C257.198 170.419 257.284 170.873 257.284 171.368C257.284 171.899 257.188 172.377 256.996 172.804C256.807 173.227 256.531 173.552 256.166 173.78C255.805 174.005 255.424 174.117 255.023 174.117C254.73 174.117 254.467 174.055 254.232 173.932C254.001 173.808 253.811 173.652 253.661 173.463V175.987H252.782ZM253.578 171.437C253.578 172.104 253.713 172.597 253.983 172.916C254.254 173.235 254.581 173.395 254.965 173.395C255.355 173.395 255.689 173.23 255.966 172.901C256.246 172.569 256.386 172.057 256.386 171.363C256.386 170.702 256.249 170.208 255.976 169.879C255.705 169.55 255.382 169.386 255.004 169.386C254.63 169.386 254.298 169.562 254.008 169.913C253.721 170.261 253.578 170.769 253.578 171.437ZM261.732 173.36C261.407 173.637 261.093 173.832 260.79 173.946C260.491 174.06 260.168 174.117 259.823 174.117C259.254 174.117 258.816 173.979 258.51 173.702C258.204 173.422 258.051 173.066 258.051 172.633C258.051 172.379 258.108 172.148 258.222 171.939C258.339 171.728 258.49 171.559 258.676 171.432C258.865 171.305 259.076 171.209 259.311 171.144C259.483 171.098 259.743 171.054 260.092 171.012C260.801 170.927 261.324 170.826 261.659 170.709C261.662 170.589 261.664 170.512 261.664 170.479C261.664 170.121 261.581 169.869 261.415 169.723C261.19 169.524 260.857 169.425 260.414 169.425C260.001 169.425 259.695 169.498 259.496 169.645C259.301 169.788 259.156 170.043 259.062 170.411L258.202 170.294C258.28 169.926 258.409 169.63 258.588 169.405C258.767 169.177 259.026 169.003 259.364 168.883C259.703 168.759 260.095 168.697 260.541 168.697C260.984 168.697 261.343 168.749 261.62 168.854C261.897 168.958 262.1 169.09 262.23 169.249C262.361 169.405 262.452 169.604 262.504 169.845C262.533 169.994 262.548 170.265 262.548 170.655V171.827C262.548 172.644 262.566 173.162 262.602 173.38C262.641 173.595 262.715 173.801 262.826 174H261.908C261.817 173.818 261.758 173.604 261.732 173.36ZM261.659 171.397C261.34 171.528 260.862 171.638 260.224 171.729C259.862 171.782 259.607 171.84 259.457 171.905C259.307 171.97 259.192 172.066 259.11 172.193C259.029 172.317 258.988 172.455 258.988 172.608C258.988 172.843 259.076 173.038 259.252 173.194C259.431 173.351 259.691 173.429 260.033 173.429C260.372 173.429 260.673 173.355 260.937 173.209C261.2 173.059 261.394 172.856 261.518 172.599C261.612 172.4 261.659 172.107 261.659 171.72V171.397ZM263.915 174V168.814H264.706V169.552C265.087 168.982 265.637 168.697 266.356 168.697C266.669 168.697 266.955 168.754 267.216 168.868C267.479 168.979 267.676 169.125 267.807 169.308C267.937 169.49 268.028 169.706 268.08 169.957C268.113 170.12 268.129 170.405 268.129 170.812V174H267.25V170.846C267.25 170.488 267.216 170.221 267.147 170.045C267.079 169.866 266.957 169.724 266.781 169.62C266.609 169.513 266.405 169.459 266.171 169.459C265.797 169.459 265.473 169.578 265.199 169.815C264.929 170.053 264.794 170.504 264.794 171.168V174H263.915ZM269.442 175.997L269.345 175.172C269.537 175.224 269.704 175.25 269.848 175.25C270.043 175.25 270.199 175.217 270.316 175.152C270.434 175.087 270.53 174.996 270.604 174.879C270.66 174.791 270.749 174.573 270.873 174.225C270.889 174.176 270.915 174.104 270.951 174.01L268.983 168.814H269.931L271.01 171.817C271.15 172.198 271.275 172.599 271.386 173.019C271.487 172.615 271.607 172.221 271.747 171.837L272.855 168.814H273.734L271.762 174.088C271.55 174.658 271.386 175.05 271.269 175.265C271.112 175.554 270.933 175.766 270.731 175.899C270.53 176.036 270.289 176.104 270.009 176.104C269.84 176.104 269.651 176.069 269.442 175.997Z" fill="#A6B2BD"/>
</g>
<defs>
<filter id="filter0_d" x="0" y="0" width="321" height="228" filterUnits="userSpaceOnUse" color-interpolation-filters="sRGB">
<feFlood flood-opacity="0" result="BackgroundImageFix"/>
<feColorMatrix in="SourceAlpha" type="matrix" values="0 0 0 0 0 0 0 0 0 0 0 0 0 0 0 0 0 0 127 0"/>
<feOffset dy="2"/>
<feGaussianBlur stdDeviation="2"/>
<feColorMatrix type="matrix" values="0 0 0 0 0.129604 0 0 0 0 0.114743 0 0 0 0 0.182631 0 0 0 0.0810752 0"/>
<feBlend mode="normal" in2="BackgroundImageFix" result="effect1_dropShadow"/>
<feBlend mode="normal" in="SourceGraphic" in2="effect1_dropShadow" result="shape"/>
</filter>
<clipPath id="clip0">
<rect width="85" height="27" fill="white" transform="translate(198 159)"/>
</clipPath>
</defs>
</svg>
