<svg width="321" height="228" viewBox="0 0 321 228" fill="none" xmlns="http://www.w3.org/2000/svg">
<g>
<rect x="4" y="2" width="313" height="220" rx="1" fill="white"/>
</g>
<path fill-rule="evenodd" clip-rule="evenodd" d="M36.0264 160.552C39.3401 160.552 42.0264 157.866 42.0264 154.552C42.0264 151.239 39.3401 148.552 36.0264 148.552C32.7127 148.552 30.0264 151.239 30.0264 154.552C30.0264 157.866 32.7127 160.552 36.0264 160.552Z" fill="#D6DFE7"/>
<path fill-rule="evenodd" clip-rule="evenodd" d="M57.0264 160.552C60.3401 160.552 63.0264 157.866 63.0264 154.552C63.0264 151.239 60.3401 148.552 57.0264 148.552C53.7127 148.552 51.0264 151.239 51.0264 154.552C51.0264 157.866 53.7127 160.552 57.0264 160.552Z" fill="#D6DFE7"/>
<path fill-rule="evenodd" clip-rule="evenodd" d="M77.0264 160.552C80.3401 160.552 83.0264 157.866 83.0264 154.552C83.0264 151.239 80.3401 148.552 77.0264 148.552C73.7127 148.552 71.0264 151.239 71.0264 154.552C71.0264 157.866 73.7127 160.552 77.0264 160.552Z" fill="#D6DFE7"/>
<rect x="108" y="127" width="84" height="6" fill="#D6DFE7"/>
<rect x="207" y="127" width="84" height="6" fill="#D6DFE7"/>
<rect x="108" y="80" width="40" height="6" fill="#D6DFE7"/>
<rect x="108" y="141" width="84" height="6" fill="#D6DFE7"/>
<rect x="207" y="141" width="84" height="6" fill="#D6DFE7"/>
<rect x="108" y="94" width="40" height="6" fill="#D6DFE7"/>
<rect x="108" y="155" width="84" height="6" fill="#D6DFE7"/>
<rect x="207" y="155" width="84" height="6" fill="#D6DFE7"/>
<path d="M87.5 92C87.5 108.292 74.2924 121.5 58 121.5C41.7076 121.5 28.5 108.292 28.5 92C28.5 75.7076 41.7076 62.5 58 62.5C74.2924 62.5 87.5 75.7076 87.5 92Z" fill="#F2F5F8" stroke="#E0E5EB"/>
<path d="M45.1953 95V87.8418H47.8955C48.3708 87.8418 48.7337 87.8646 48.9844 87.9102C49.3359 87.9688 49.6305 88.0811 49.8682 88.2471C50.1058 88.4098 50.2962 88.6393 50.4395 88.9355C50.5859 89.2318 50.6592 89.5573 50.6592 89.9121C50.6592 90.5208 50.4655 91.0368 50.0781 91.46C49.6908 91.8799 48.9909 92.0898 47.9785 92.0898H46.1426V95H45.1953ZM46.1426 91.2451H47.9932C48.6051 91.2451 49.0397 91.1312 49.2969 90.9033C49.554 90.6755 49.6826 90.3548 49.6826 89.9414C49.6826 89.6419 49.6061 89.3864 49.4531 89.1748C49.3034 88.96 49.1048 88.8184 48.8574 88.75C48.6979 88.7077 48.4033 88.6865 47.9736 88.6865H46.1426V91.2451ZM51.7529 95V87.8418H52.6318V90.4102C53.042 89.9349 53.5596 89.6973 54.1846 89.6973C54.5687 89.6973 54.9023 89.7738 55.1855 89.9268C55.4688 90.0765 55.6706 90.2848 55.791 90.5518C55.9147 90.8187 55.9766 91.2061 55.9766 91.7139V95H55.0977V91.7139C55.0977 91.2744 55.0016 90.9554 54.8096 90.7568C54.6208 90.555 54.3522 90.4541 54.0039 90.4541C53.7435 90.4541 53.4977 90.5225 53.2666 90.6592C53.0387 90.7926 52.876 90.9749 52.7783 91.2061C52.6807 91.4372 52.6318 91.7562 52.6318 92.1631V95H51.7529ZM56.9922 92.4072C56.9922 91.4469 57.2591 90.7357 57.793 90.2734C58.2389 89.8893 58.7826 89.6973 59.4238 89.6973C60.1367 89.6973 60.7194 89.9316 61.1719 90.4004C61.6243 90.8659 61.8506 91.5104 61.8506 92.334C61.8506 93.0013 61.7497 93.527 61.5479 93.9111C61.3493 94.292 61.0579 94.5882 60.6738 94.7998C60.293 95.0114 59.8763 95.1172 59.4238 95.1172C58.6979 95.1172 58.1104 94.8844 57.6611 94.4189C57.2152 93.9535 56.9922 93.2829 56.9922 92.4072ZM57.8955 92.4072C57.8955 93.0713 58.0404 93.5693 58.3301 93.9014C58.6198 94.2301 58.9844 94.3945 59.4238 94.3945C59.86 94.3945 60.223 94.2285 60.5127 93.8965C60.8024 93.5645 60.9473 93.0583 60.9473 92.3779C60.9473 91.7367 60.8008 91.2516 60.5078 90.9229C60.2181 90.5908 59.8568 90.4248 59.4238 90.4248C58.9844 90.4248 58.6198 90.5892 58.3301 90.918C58.0404 91.2467 57.8955 91.7432 57.8955 92.4072ZM64.8047 94.2139L64.9316 94.9902C64.6842 95.0423 64.4629 95.0684 64.2676 95.0684C63.9486 95.0684 63.7012 95.0179 63.5254 94.917C63.3496 94.8161 63.2259 94.6842 63.1543 94.5215C63.0827 94.3555 63.0469 94.0088 63.0469 93.4814V90.498H62.4023V89.8145H63.0469V88.5303L63.9209 88.0029V89.8145H64.8047V90.498H63.9209V93.5303C63.9209 93.7809 63.9355 93.9421 63.9648 94.0137C63.9974 94.0853 64.0479 94.1423 64.1162 94.1846C64.1878 94.2269 64.2887 94.248 64.4189 94.248C64.5166 94.248 64.6452 94.2367 64.8047 94.2139ZM65.3418 92.4072C65.3418 91.4469 65.6087 90.7357 66.1426 90.2734C66.5885 89.8893 67.1322 89.6973 67.7734 89.6973C68.4863 89.6973 69.069 89.9316 69.5215 90.4004C69.974 90.8659 70.2002 91.5104 70.2002 92.334C70.2002 93.0013 70.0993 93.527 69.8975 93.9111C69.6989 94.292 69.4076 94.5882 69.0234 94.7998C68.6426 95.0114 68.2259 95.1172 67.7734 95.1172C67.0475 95.1172 66.46 94.8844 66.0107 94.4189C65.5648 93.9535 65.3418 93.2829 65.3418 92.4072ZM66.2451 92.4072C66.2451 93.0713 66.39 93.5693 66.6797 93.9014C66.9694 94.2301 67.334 94.3945 67.7734 94.3945C68.2096 94.3945 68.5726 94.2285 68.8623 93.8965C69.152 93.5645 69.2969 93.0583 69.2969 92.3779C69.2969 91.7367 69.1504 91.2516 68.8574 90.9229C68.5677 90.5908 68.2064 90.4248 67.7734 90.4248C67.334 90.4248 66.9694 90.5892 66.6797 90.918C66.39 91.2467 66.2451 91.7432 66.2451 92.4072Z" fill="#A6B2BD"/>
<g clip-path="url(#clip0)">
<rect x="207" y="76" width="85" height="27" rx="1" fill="#F2F5F8" stroke="#E0E5EB" stroke-width="0.75"/>
<path d="M217.91 91V83.8418H218.857V90.1553H222.383V91H217.91ZM223.076 88.4072C223.076 87.4469 223.343 86.7357 223.877 86.2734C224.323 85.8893 224.867 85.6973 225.508 85.6973C226.221 85.6973 226.803 85.9316 227.256 86.4004C227.708 86.8659 227.935 87.5104 227.935 88.334C227.935 89.0013 227.834 89.527 227.632 89.9111C227.433 90.292 227.142 90.5882 226.758 90.7998C226.377 91.0114 225.96 91.1172 225.508 91.1172C224.782 91.1172 224.194 90.8844 223.745 90.4189C223.299 89.9535 223.076 89.2829 223.076 88.4072ZM223.979 88.4072C223.979 89.0713 224.124 89.5693 224.414 89.9014C224.704 90.2301 225.068 90.3945 225.508 90.3945C225.944 90.3945 226.307 90.2285 226.597 89.8965C226.886 89.5645 227.031 89.0583 227.031 88.3779C227.031 87.7367 226.885 87.2516 226.592 86.9229C226.302 86.5908 225.941 86.4248 225.508 86.4248C225.068 86.4248 224.704 86.5892 224.414 86.918C224.124 87.2467 223.979 87.7432 223.979 88.4072ZM228.809 91.4297L229.663 91.5566C229.699 91.8203 229.798 92.0124 229.961 92.1328C230.179 92.2956 230.477 92.377 230.854 92.377C231.261 92.377 231.576 92.2956 231.797 92.1328C232.018 91.9701 232.168 91.7422 232.246 91.4492C232.292 91.2702 232.313 90.8942 232.31 90.3213C231.925 90.7738 231.447 91 230.874 91C230.161 91 229.609 90.7428 229.219 90.2285C228.828 89.7142 228.633 89.0973 228.633 88.3779C228.633 87.8831 228.722 87.4274 228.901 87.0107C229.08 86.5908 229.339 86.2669 229.678 86.0391C230.02 85.8112 230.42 85.6973 230.879 85.6973C231.491 85.6973 231.995 85.9447 232.393 86.4395V85.8145H233.203V90.2969C233.203 91.1042 233.12 91.6755 232.954 92.0107C232.791 92.3493 232.531 92.6162 232.173 92.8115C231.818 93.0068 231.38 93.1045 230.859 93.1045C230.241 93.1045 229.741 92.9645 229.36 92.6846C228.979 92.4079 228.796 91.9896 228.809 91.4297ZM229.536 88.3145C229.536 88.9948 229.671 89.4912 229.941 89.8037C230.212 90.1162 230.55 90.2725 230.957 90.2725C231.361 90.2725 231.699 90.1178 231.973 89.8086C232.246 89.4961 232.383 89.0078 232.383 88.3438C232.383 87.709 232.241 87.2305 231.958 86.9082C231.678 86.5859 231.34 86.4248 230.942 86.4248C230.552 86.4248 230.22 86.5843 229.946 86.9033C229.673 87.2191 229.536 87.6895 229.536 88.3145ZM234.209 88.4072C234.209 87.4469 234.476 86.7357 235.01 86.2734C235.456 85.8893 235.999 85.6973 236.641 85.6973C237.354 85.6973 237.936 85.9316 238.389 86.4004C238.841 86.8659 239.067 87.5104 239.067 88.334C239.067 89.0013 238.966 89.527 238.765 89.9111C238.566 90.292 238.275 90.5882 237.891 90.7998C237.51 91.0114 237.093 91.1172 236.641 91.1172C235.915 91.1172 235.327 90.8844 234.878 90.4189C234.432 89.9535 234.209 89.2829 234.209 88.4072ZM235.112 88.4072C235.112 89.0713 235.257 89.5693 235.547 89.9014C235.837 90.2301 236.201 90.3945 236.641 90.3945C237.077 90.3945 237.44 90.2285 237.729 89.8965C238.019 89.5645 238.164 89.0583 238.164 88.3779C238.164 87.7367 238.018 87.2516 237.725 86.9229C237.435 86.5908 237.074 86.4248 236.641 86.4248C236.201 86.4248 235.837 86.5892 235.547 86.918C235.257 87.2467 235.112 87.7432 235.112 88.4072ZM246.27 89.1006L247.134 89.2129C247.039 89.8086 246.797 90.2757 246.406 90.6143C246.019 90.9495 245.542 91.1172 244.976 91.1172C244.266 91.1172 243.695 90.8861 243.262 90.4238C242.832 89.9583 242.617 89.2926 242.617 88.4268C242.617 87.8669 242.71 87.377 242.896 86.957C243.081 86.5371 243.363 86.223 243.74 86.0146C244.121 85.8031 244.535 85.6973 244.98 85.6973C245.544 85.6973 246.004 85.8405 246.362 86.127C246.72 86.4102 246.95 86.8138 247.051 87.3379L246.196 87.4697C246.115 87.1214 245.97 86.8594 245.762 86.6836C245.557 86.5078 245.308 86.4199 245.015 86.4199C244.572 86.4199 244.212 86.5794 243.936 86.8984C243.659 87.2142 243.521 87.7155 243.521 88.4023C243.521 89.099 243.654 89.6051 243.921 89.9209C244.188 90.2367 244.536 90.3945 244.966 90.3945C245.311 90.3945 245.599 90.2887 245.83 90.0771C246.061 89.8656 246.208 89.54 246.27 89.1006ZM247.559 88.4072C247.559 87.4469 247.826 86.7357 248.359 86.2734C248.805 85.8893 249.349 85.6973 249.99 85.6973C250.703 85.6973 251.286 85.9316 251.738 86.4004C252.191 86.8659 252.417 87.5104 252.417 88.334C252.417 89.0013 252.316 89.527 252.114 89.9111C251.916 90.292 251.624 90.5882 251.24 90.7998C250.859 91.0114 250.443 91.1172 249.99 91.1172C249.264 91.1172 248.677 90.8844 248.228 90.4189C247.782 89.9535 247.559 89.2829 247.559 88.4072ZM248.462 88.4072C248.462 89.0713 248.607 89.5693 248.896 89.9014C249.186 90.2301 249.551 90.3945 249.99 90.3945C250.426 90.3945 250.789 90.2285 251.079 89.8965C251.369 89.5645 251.514 89.0583 251.514 88.3779C251.514 87.7367 251.367 87.2516 251.074 86.9229C250.785 86.5908 250.423 86.4248 249.99 86.4248C249.551 86.4248 249.186 86.5892 248.896 86.918C248.607 87.2467 248.462 87.7432 248.462 88.4072ZM253.452 91V85.8145H254.238V86.542C254.401 86.2881 254.618 86.0846 254.888 85.9316C255.158 85.7754 255.465 85.6973 255.811 85.6973C256.195 85.6973 256.509 85.777 256.753 85.9365C257 86.096 257.174 86.319 257.275 86.6055C257.686 86 258.219 85.6973 258.877 85.6973C259.391 85.6973 259.787 85.8405 260.063 86.127C260.34 86.4102 260.479 86.848 260.479 87.4404V91H259.604V87.7334C259.604 87.3818 259.575 87.1296 259.517 86.9766C259.461 86.8203 259.359 86.695 259.209 86.6006C259.059 86.5062 258.883 86.459 258.682 86.459C258.317 86.459 258.014 86.5811 257.773 86.8252C257.533 87.0661 257.412 87.4535 257.412 87.9873V91H256.533V87.6309C256.533 87.2402 256.462 86.9473 256.318 86.752C256.175 86.5566 255.941 86.459 255.615 86.459C255.368 86.459 255.138 86.5241 254.927 86.6543C254.718 86.7845 254.567 86.9749 254.473 87.2256C254.378 87.4762 254.331 87.8376 254.331 88.3096V91H253.452ZM261.782 92.9873V85.8145H262.583V86.4883C262.772 86.2246 262.985 86.0277 263.223 85.8975C263.46 85.764 263.748 85.6973 264.087 85.6973C264.53 85.6973 264.92 85.8112 265.259 86.0391C265.597 86.2669 265.853 86.5892 266.025 87.0059C266.198 87.4193 266.284 87.8734 266.284 88.3682C266.284 88.8988 266.188 89.3773 265.996 89.8037C265.807 90.2269 265.531 90.5524 265.166 90.7803C264.805 91.0049 264.424 91.1172 264.023 91.1172C263.73 91.1172 263.467 91.0553 263.232 90.9316C263.001 90.8079 262.811 90.6517 262.661 90.4629V92.9873H261.782ZM262.578 88.4365C262.578 89.1038 262.713 89.597 262.983 89.916C263.254 90.235 263.581 90.3945 263.965 90.3945C264.355 90.3945 264.689 90.2301 264.966 89.9014C265.246 89.5693 265.386 89.0566 265.386 88.3633C265.386 87.7025 265.249 87.2077 264.976 86.8789C264.705 86.5501 264.382 86.3857 264.004 86.3857C263.63 86.3857 263.298 86.5615 263.008 86.9131C262.721 87.2614 262.578 87.7692 262.578 88.4365ZM270.732 90.3604C270.407 90.637 270.093 90.8324 269.79 90.9463C269.491 91.0602 269.168 91.1172 268.823 91.1172C268.254 91.1172 267.816 90.9788 267.51 90.7021C267.204 90.4222 267.051 90.0658 267.051 89.6328C267.051 89.3789 267.108 89.1478 267.222 88.9395C267.339 88.7279 267.49 88.5586 267.676 88.4316C267.865 88.3047 268.076 88.2087 268.311 88.1436C268.483 88.098 268.743 88.054 269.092 88.0117C269.801 87.9271 270.324 87.8262 270.659 87.709C270.662 87.5885 270.664 87.512 270.664 87.4795C270.664 87.1214 270.581 86.8691 270.415 86.7227C270.19 86.5241 269.857 86.4248 269.414 86.4248C269.001 86.4248 268.695 86.498 268.496 86.6445C268.301 86.7878 268.156 87.0433 268.062 87.4111L267.202 87.2939C267.28 86.9261 267.409 86.6299 267.588 86.4053C267.767 86.1774 268.026 86.0033 268.364 85.8828C268.703 85.7591 269.095 85.6973 269.541 85.6973C269.984 85.6973 270.343 85.7493 270.62 85.8535C270.897 85.9577 271.1 86.0895 271.23 86.249C271.361 86.4053 271.452 86.6038 271.504 86.8447C271.533 86.9945 271.548 87.2646 271.548 87.6553V88.8271C271.548 89.6442 271.566 90.1618 271.602 90.3799C271.641 90.5947 271.715 90.8014 271.826 91H270.908C270.817 90.8177 270.758 90.6045 270.732 90.3604ZM270.659 88.3975C270.34 88.5277 269.862 88.6383 269.224 88.7295C268.862 88.7816 268.607 88.8402 268.457 88.9053C268.307 88.9704 268.192 89.0664 268.11 89.1934C268.029 89.3171 267.988 89.4554 267.988 89.6084C267.988 89.8428 268.076 90.0381 268.252 90.1943C268.431 90.3506 268.691 90.4287 269.033 90.4287C269.372 90.4287 269.673 90.3555 269.937 90.209C270.2 90.0592 270.394 89.8558 270.518 89.5986C270.612 89.4001 270.659 89.1071 270.659 88.7197V88.3975ZM272.915 91V85.8145H273.706V86.5518C274.087 85.9821 274.637 85.6973 275.356 85.6973C275.669 85.6973 275.955 85.7542 276.216 85.8682C276.479 85.9788 276.676 86.1253 276.807 86.3076C276.937 86.4899 277.028 86.7064 277.08 86.957C277.113 87.1198 277.129 87.4046 277.129 87.8115V91H276.25V87.8457C276.25 87.4876 276.216 87.2207 276.147 87.0449C276.079 86.8659 275.957 86.7243 275.781 86.6201C275.609 86.5127 275.405 86.459 275.171 86.459C274.797 86.459 274.473 86.5778 274.199 86.8154C273.929 87.0531 273.794 87.5039 273.794 88.168V91H272.915ZM278.442 92.9971L278.345 92.1719C278.537 92.224 278.704 92.25 278.848 92.25C279.043 92.25 279.199 92.2174 279.316 92.1523C279.434 92.0872 279.53 91.9961 279.604 91.8789C279.66 91.791 279.749 91.5729 279.873 91.2246C279.889 91.1758 279.915 91.1042 279.951 91.0098L277.983 85.8145H278.931L280.01 88.8174C280.15 89.1982 280.275 89.5986 280.386 90.0186C280.487 89.6149 280.607 89.221 280.747 88.8369L281.855 85.8145H282.734L280.762 91.0879C280.55 91.6576 280.386 92.0498 280.269 92.2646C280.112 92.5544 279.933 92.766 279.731 92.8994C279.53 93.0361 279.289 93.1045 279.009 93.1045C278.84 93.1045 278.651 93.0687 278.442 92.9971Z" fill="#A6B2BD"/>
</g>
<defs>
<filter id="filter0_d" x="0" y="0" width="321" height="228" filterUnits="userSpaceOnUse" color-interpolation-filters="sRGB">
<feFlood flood-opacity="0" result="BackgroundImageFix"/>
<feColorMatrix in="SourceAlpha" type="matrix" values="0 0 0 0 0 0 0 0 0 0 0 0 0 0 0 0 0 0 127 0"/>
<feOffset dy="2"/>
<feGaussianBlur stdDeviation="2"/>
<feColorMatrix type="matrix" values="0 0 0 0 0.129604 0 0 0 0 0.114743 0 0 0 0 0.182631 0 0 0 0.0810752 0"/>
<feBlend mode="normal" in2="BackgroundImageFix" result="effect1_dropShadow"/>
<feBlend mode="normal" in="SourceGraphic" in2="effect1_dropShadow" result="shape"/>
</filter>
<clipPath id="clip0">
<rect width="85" height="27" fill="white" transform="translate(207 76)"/>
</clipPath>
</defs>
</svg>
