<svg width="321" height="228" viewBox="0 0 321 228" fill="none" xmlns="http://www.w3.org/2000/svg">
<g>
<rect x="4" y="2" width="313" height="220" rx="1" fill="white"/>
</g>
<g clip-path="url(#clip0)">
<path fill-rule="evenodd" clip-rule="evenodd" d="M43.0264 180C46.3401 180 49.0264 177.314 49.0264 174C49.0264 170.686 46.3401 168 43.0264 168C39.7127 168 37.0264 170.686 37.0264 174C37.0264 177.314 39.7127 180 43.0264 180Z" fill="#D6DFE7"/>
<path fill-rule="evenodd" clip-rule="evenodd" d="M64.0264 180C67.3401 180 70.0264 177.314 70.0264 174C70.0264 170.686 67.3401 168 64.0264 168C60.7127 168 58.0264 170.686 58.0264 174C58.0264 177.314 60.7127 180 64.0264 180Z" fill="#D6DFE7"/>
<path fill-rule="evenodd" clip-rule="evenodd" d="M84.0264 180C87.3401 180 90.0264 177.314 90.0264 174C90.0264 170.686 87.3401 168 84.0264 168C80.7127 168 78.0264 170.686 78.0264 174C78.0264 177.314 80.7127 180 84.0264 180Z" fill="#D6DFE7"/>
<rect x="129" y="102" width="77" height="6" fill="#D6DFE7"/>
<rect x="220" y="102" width="77" height="6" fill="#D6DFE7"/>
<rect x="129" y="54" width="119" height="6" fill="#D6DFE7"/>
<rect x="129" y="116" width="77" height="6" fill="#D6DFE7"/>
<rect x="220" y="116" width="77" height="6" fill="#D6DFE7"/>
<rect x="129" y="68" width="119" height="6" fill="#D6DFE7"/>
<rect x="129" y="130" width="77" height="6" fill="#D6DFE7"/>
<rect x="220" y="130" width="77" height="6" fill="#D6DFE7"/>
<path d="M93.5 74C93.5 90.2924 80.2924 103.5 64 103.5C47.7076 103.5 34.5 90.2924 34.5 74C34.5 57.7076 47.7076 44.5 64 44.5C80.2924 44.5 93.5 57.7076 93.5 74Z" fill="#F2F5F8" stroke="#E0E5EB"/>
<path d="M51.1953 77V69.8418H53.8955C54.3708 69.8418 54.7337 69.8646 54.9844 69.9102C55.3359 69.9688 55.6305 70.0811 55.8682 70.2471C56.1058 70.4098 56.2962 70.6393 56.4395 70.9355C56.5859 71.2318 56.6592 71.5573 56.6592 71.9121C56.6592 72.5208 56.4655 73.0368 56.0781 73.46C55.6908 73.8799 54.9909 74.0898 53.9785 74.0898H52.1426V77H51.1953ZM52.1426 73.2451H53.9932C54.6051 73.2451 55.0397 73.1312 55.2969 72.9033C55.554 72.6755 55.6826 72.3548 55.6826 71.9414C55.6826 71.6419 55.6061 71.3864 55.4531 71.1748C55.3034 70.96 55.1048 70.8184 54.8574 70.75C54.6979 70.7077 54.4033 70.6865 53.9736 70.6865H52.1426V73.2451ZM57.7529 77V69.8418H58.6318V72.4102C59.042 71.9349 59.5596 71.6973 60.1846 71.6973C60.5687 71.6973 60.9023 71.7738 61.1855 71.9268C61.4688 72.0765 61.6706 72.2848 61.791 72.5518C61.9147 72.8187 61.9766 73.2061 61.9766 73.7139V77H61.0977V73.7139C61.0977 73.2744 61.0016 72.9554 60.8096 72.7568C60.6208 72.555 60.3522 72.4541 60.0039 72.4541C59.7435 72.4541 59.4977 72.5225 59.2666 72.6592C59.0387 72.7926 58.876 72.9749 58.7783 73.2061C58.6807 73.4372 58.6318 73.7562 58.6318 74.1631V77H57.7529ZM62.9922 74.4072C62.9922 73.4469 63.2591 72.7357 63.793 72.2734C64.2389 71.8893 64.7826 71.6973 65.4238 71.6973C66.1367 71.6973 66.7194 71.9316 67.1719 72.4004C67.6243 72.8659 67.8506 73.5104 67.8506 74.334C67.8506 75.0013 67.7497 75.527 67.5479 75.9111C67.3493 76.292 67.0579 76.5882 66.6738 76.7998C66.293 77.0114 65.8763 77.1172 65.4238 77.1172C64.6979 77.1172 64.1104 76.8844 63.6611 76.4189C63.2152 75.9535 62.9922 75.2829 62.9922 74.4072ZM63.8955 74.4072C63.8955 75.0713 64.0404 75.5693 64.3301 75.9014C64.6198 76.2301 64.9844 76.3945 65.4238 76.3945C65.86 76.3945 66.223 76.2285 66.5127 75.8965C66.8024 75.5645 66.9473 75.0583 66.9473 74.3779C66.9473 73.7367 66.8008 73.2516 66.5078 72.9229C66.2181 72.5908 65.8568 72.4248 65.4238 72.4248C64.9844 72.4248 64.6198 72.5892 64.3301 72.918C64.0404 73.2467 63.8955 73.7432 63.8955 74.4072ZM70.8047 76.2139L70.9316 76.9902C70.6842 77.0423 70.4629 77.0684 70.2676 77.0684C69.9486 77.0684 69.7012 77.0179 69.5254 76.917C69.3496 76.8161 69.2259 76.6842 69.1543 76.5215C69.0827 76.3555 69.0469 76.0088 69.0469 75.4814V72.498H68.4023V71.8145H69.0469V70.5303L69.9209 70.0029V71.8145H70.8047V72.498H69.9209V75.5303C69.9209 75.7809 69.9355 75.9421 69.9648 76.0137C69.9974 76.0853 70.0479 76.1423 70.1162 76.1846C70.1878 76.2269 70.2887 76.248 70.4189 76.248C70.5166 76.248 70.6452 76.2367 70.8047 76.2139ZM71.3418 74.4072C71.3418 73.4469 71.6087 72.7357 72.1426 72.2734C72.5885 71.8893 73.1322 71.6973 73.7734 71.6973C74.4863 71.6973 75.069 71.9316 75.5215 72.4004C75.974 72.8659 76.2002 73.5104 76.2002 74.334C76.2002 75.0013 76.0993 75.527 75.8975 75.9111C75.6989 76.292 75.4076 76.5882 75.0234 76.7998C74.6426 77.0114 74.2259 77.1172 73.7734 77.1172C73.0475 77.1172 72.46 76.8844 72.0107 76.4189C71.5648 75.9535 71.3418 75.2829 71.3418 74.4072ZM72.2451 74.4072C72.2451 75.0713 72.39 75.5693 72.6797 75.9014C72.9694 76.2301 73.334 76.3945 73.7734 76.3945C74.2096 76.3945 74.5726 76.2285 74.8623 75.8965C75.152 75.5645 75.2969 75.0583 75.2969 74.3779C75.2969 73.7367 75.1504 73.2516 74.8574 72.9229C74.5677 72.5908 74.2064 72.4248 73.7734 72.4248C73.334 72.4248 72.9694 72.5892 72.6797 72.918C72.39 73.2467 72.2451 73.7432 72.2451 74.4072Z" fill="#A6B2BD"/>
<rect x="25" y="124" width="79" height="27" rx="1" fill="#F2F5F8" stroke="#E0E5EB" stroke-width="0.75"/>
<path d="M32.4102 139V131.842H33.3574V138.155H36.8828V139H32.4102ZM37.5762 136.407C37.5762 135.447 37.8431 134.736 38.377 134.273C38.8229 133.889 39.3665 133.697 40.0078 133.697C40.7207 133.697 41.3034 133.932 41.7559 134.4C42.2083 134.866 42.4346 135.51 42.4346 136.334C42.4346 137.001 42.3337 137.527 42.1318 137.911C41.9333 138.292 41.6419 138.588 41.2578 138.8C40.877 139.011 40.4603 139.117 40.0078 139.117C39.2819 139.117 38.6943 138.884 38.2451 138.419C37.7992 137.953 37.5762 137.283 37.5762 136.407ZM38.4795 136.407C38.4795 137.071 38.6243 137.569 38.9141 137.901C39.2038 138.23 39.5684 138.395 40.0078 138.395C40.444 138.395 40.807 138.229 41.0967 137.896C41.3864 137.564 41.5312 137.058 41.5312 136.378C41.5312 135.737 41.3848 135.252 41.0918 134.923C40.8021 134.591 40.4408 134.425 40.0078 134.425C39.5684 134.425 39.2038 134.589 38.9141 134.918C38.6243 135.247 38.4795 135.743 38.4795 136.407ZM43.3086 139.43L44.1631 139.557C44.1989 139.82 44.2982 140.012 44.4609 140.133C44.679 140.296 44.9769 140.377 45.3545 140.377C45.7614 140.377 46.0755 140.296 46.2969 140.133C46.5182 139.97 46.668 139.742 46.7461 139.449C46.7917 139.27 46.8128 138.894 46.8096 138.321C46.4255 138.774 45.9469 139 45.374 139C44.6611 139 44.1094 138.743 43.7188 138.229C43.3281 137.714 43.1328 137.097 43.1328 136.378C43.1328 135.883 43.2223 135.427 43.4014 135.011C43.5804 134.591 43.8392 134.267 44.1777 134.039C44.5195 133.811 44.9199 133.697 45.3789 133.697C45.9909 133.697 46.4954 133.945 46.8926 134.439V133.814H47.7031V138.297C47.7031 139.104 47.6201 139.675 47.4541 140.011C47.2913 140.349 47.0309 140.616 46.6729 140.812C46.318 141.007 45.8802 141.104 45.3594 141.104C44.7409 141.104 44.2412 140.965 43.8604 140.685C43.4795 140.408 43.2956 139.99 43.3086 139.43ZM44.0361 136.314C44.0361 136.995 44.1712 137.491 44.4414 137.804C44.7116 138.116 45.0501 138.272 45.457 138.272C45.8607 138.272 46.1992 138.118 46.4727 137.809C46.7461 137.496 46.8828 137.008 46.8828 136.344C46.8828 135.709 46.7412 135.23 46.458 134.908C46.1781 134.586 45.8395 134.425 45.4424 134.425C45.0518 134.425 44.7197 134.584 44.4463 134.903C44.1729 135.219 44.0361 135.689 44.0361 136.314ZM48.709 136.407C48.709 135.447 48.9759 134.736 49.5098 134.273C49.9557 133.889 50.4993 133.697 51.1406 133.697C51.8535 133.697 52.4362 133.932 52.8887 134.4C53.3411 134.866 53.5674 135.51 53.5674 136.334C53.5674 137.001 53.4665 137.527 53.2646 137.911C53.0661 138.292 52.7747 138.588 52.3906 138.8C52.0098 139.011 51.5931 139.117 51.1406 139.117C50.4147 139.117 49.8271 138.884 49.3779 138.419C48.932 137.953 48.709 137.283 48.709 136.407ZM49.6123 136.407C49.6123 137.071 49.7572 137.569 50.0469 137.901C50.3366 138.23 50.7012 138.395 51.1406 138.395C51.5768 138.395 51.9398 138.229 52.2295 137.896C52.5192 137.564 52.6641 137.058 52.6641 136.378C52.6641 135.737 52.5176 135.252 52.2246 134.923C51.9349 134.591 51.5736 134.425 51.1406 134.425C50.7012 134.425 50.3366 134.589 50.0469 134.918C49.7572 135.247 49.6123 135.743 49.6123 136.407ZM60.7695 137.101L61.6338 137.213C61.5394 137.809 61.2969 138.276 60.9062 138.614C60.5189 138.95 60.042 139.117 59.4756 139.117C58.766 139.117 58.1947 138.886 57.7617 138.424C57.332 137.958 57.1172 137.293 57.1172 136.427C57.1172 135.867 57.21 135.377 57.3955 134.957C57.5811 134.537 57.8626 134.223 58.2402 134.015C58.6211 133.803 59.0345 133.697 59.4805 133.697C60.0436 133.697 60.5042 133.84 60.8623 134.127C61.2204 134.41 61.4499 134.814 61.5508 135.338L60.6963 135.47C60.6149 135.121 60.4701 134.859 60.2617 134.684C60.0566 134.508 59.8076 134.42 59.5146 134.42C59.0719 134.42 58.7122 134.579 58.4355 134.898C58.1589 135.214 58.0205 135.715 58.0205 136.402C58.0205 137.099 58.154 137.605 58.4209 137.921C58.6878 138.237 59.0361 138.395 59.4658 138.395C59.8109 138.395 60.099 138.289 60.3301 138.077C60.5612 137.866 60.7077 137.54 60.7695 137.101ZM62.0586 136.407C62.0586 135.447 62.3255 134.736 62.8594 134.273C63.3053 133.889 63.849 133.697 64.4902 133.697C65.2031 133.697 65.7858 133.932 66.2383 134.4C66.6908 134.866 66.917 135.51 66.917 136.334C66.917 137.001 66.8161 137.527 66.6143 137.911C66.4157 138.292 66.1243 138.588 65.7402 138.8C65.3594 139.011 64.9427 139.117 64.4902 139.117C63.7643 139.117 63.1768 138.884 62.7275 138.419C62.2816 137.953 62.0586 137.283 62.0586 136.407ZM62.9619 136.407C62.9619 137.071 63.1068 137.569 63.3965 137.901C63.6862 138.23 64.0508 138.395 64.4902 138.395C64.9264 138.395 65.2894 138.229 65.5791 137.896C65.8688 137.564 66.0137 137.058 66.0137 136.378C66.0137 135.737 65.8672 135.252 65.5742 134.923C65.2845 134.591 64.9232 134.425 64.4902 134.425C64.0508 134.425 63.6862 134.589 63.3965 134.918C63.1068 135.247 62.9619 135.743 62.9619 136.407ZM67.9521 139V133.814H68.7383V134.542C68.901 134.288 69.1175 134.085 69.3877 133.932C69.6579 133.775 69.9655 133.697 70.3105 133.697C70.6947 133.697 71.0088 133.777 71.2529 133.937C71.5003 134.096 71.6745 134.319 71.7754 134.605C72.1855 134 72.7194 133.697 73.377 133.697C73.8913 133.697 74.2868 133.84 74.5635 134.127C74.8402 134.41 74.9785 134.848 74.9785 135.44V139H74.1045V135.733C74.1045 135.382 74.0752 135.13 74.0166 134.977C73.9613 134.82 73.8587 134.695 73.709 134.601C73.5592 134.506 73.3835 134.459 73.1816 134.459C72.8171 134.459 72.5143 134.581 72.2734 134.825C72.0326 135.066 71.9121 135.453 71.9121 135.987V139H71.0332V135.631C71.0332 135.24 70.9616 134.947 70.8184 134.752C70.6751 134.557 70.4408 134.459 70.1152 134.459C69.8678 134.459 69.6383 134.524 69.4268 134.654C69.2184 134.785 69.0671 134.975 68.9727 135.226C68.8783 135.476 68.8311 135.838 68.8311 136.31V139H67.9521ZM76.2822 140.987V133.814H77.083V134.488C77.2718 134.225 77.485 134.028 77.7227 133.897C77.9603 133.764 78.2484 133.697 78.5869 133.697C79.0296 133.697 79.4202 133.811 79.7588 134.039C80.0973 134.267 80.3529 134.589 80.5254 135.006C80.6979 135.419 80.7842 135.873 80.7842 136.368C80.7842 136.899 80.6882 137.377 80.4961 137.804C80.3073 138.227 80.0306 138.552 79.666 138.78C79.3047 139.005 78.9238 139.117 78.5234 139.117C78.2305 139.117 77.9668 139.055 77.7324 138.932C77.5013 138.808 77.3109 138.652 77.1611 138.463V140.987H76.2822ZM77.0781 136.437C77.0781 137.104 77.2132 137.597 77.4834 137.916C77.7536 138.235 78.0807 138.395 78.4648 138.395C78.8555 138.395 79.1891 138.23 79.4658 137.901C79.7458 137.569 79.8857 137.057 79.8857 136.363C79.8857 135.702 79.749 135.208 79.4756 134.879C79.2054 134.55 78.8815 134.386 78.5039 134.386C78.1296 134.386 77.7975 134.562 77.5078 134.913C77.2214 135.261 77.0781 135.769 77.0781 136.437ZM85.2324 138.36C84.9069 138.637 84.5928 138.832 84.29 138.946C83.9906 139.06 83.6683 139.117 83.3232 139.117C82.7536 139.117 82.3158 138.979 82.0098 138.702C81.7038 138.422 81.5508 138.066 81.5508 137.633C81.5508 137.379 81.6077 137.148 81.7217 136.939C81.8389 136.728 81.9902 136.559 82.1758 136.432C82.3646 136.305 82.5762 136.209 82.8105 136.144C82.9831 136.098 83.2435 136.054 83.5918 136.012C84.3014 135.927 84.8239 135.826 85.1592 135.709C85.1624 135.589 85.1641 135.512 85.1641 135.479C85.1641 135.121 85.0811 134.869 84.915 134.723C84.6904 134.524 84.3568 134.425 83.9141 134.425C83.5007 134.425 83.1947 134.498 82.9961 134.645C82.8008 134.788 82.6559 135.043 82.5615 135.411L81.7021 135.294C81.7803 134.926 81.9089 134.63 82.0879 134.405C82.2669 134.177 82.5257 134.003 82.8643 133.883C83.2028 133.759 83.5951 133.697 84.041 133.697C84.4837 133.697 84.8434 133.749 85.1201 133.854C85.3968 133.958 85.6003 134.09 85.7305 134.249C85.8607 134.405 85.9518 134.604 86.0039 134.845C86.0332 134.994 86.0479 135.265 86.0479 135.655V136.827C86.0479 137.644 86.0658 138.162 86.1016 138.38C86.1406 138.595 86.2155 138.801 86.3262 139H85.4082C85.3171 138.818 85.2585 138.604 85.2324 138.36ZM85.1592 136.397C84.8402 136.528 84.3617 136.638 83.7236 136.729C83.3623 136.782 83.1068 136.84 82.957 136.905C82.8073 136.97 82.6917 137.066 82.6104 137.193C82.529 137.317 82.4883 137.455 82.4883 137.608C82.4883 137.843 82.5762 138.038 82.752 138.194C82.931 138.351 83.1914 138.429 83.5332 138.429C83.8717 138.429 84.1729 138.355 84.4365 138.209C84.7002 138.059 84.8939 137.856 85.0176 137.599C85.112 137.4 85.1592 137.107 85.1592 136.72V136.397ZM87.415 139V133.814H88.2061V134.552C88.5869 133.982 89.137 133.697 89.8564 133.697C90.1689 133.697 90.4554 133.754 90.7158 133.868C90.9795 133.979 91.1764 134.125 91.3066 134.308C91.4368 134.49 91.528 134.706 91.5801 134.957C91.6126 135.12 91.6289 135.405 91.6289 135.812V139H90.75V135.846C90.75 135.488 90.7158 135.221 90.6475 135.045C90.5791 134.866 90.457 134.724 90.2812 134.62C90.1087 134.513 89.9053 134.459 89.6709 134.459C89.2965 134.459 88.9727 134.578 88.6992 134.815C88.429 135.053 88.2939 135.504 88.2939 136.168V139H87.415ZM92.9424 140.997L92.8447 140.172C93.0368 140.224 93.2044 140.25 93.3477 140.25C93.543 140.25 93.6992 140.217 93.8164 140.152C93.9336 140.087 94.0296 139.996 94.1045 139.879C94.1598 139.791 94.2493 139.573 94.373 139.225C94.3893 139.176 94.4154 139.104 94.4512 139.01L92.4834 133.814H93.4307L94.5098 136.817C94.6497 137.198 94.7751 137.599 94.8857 138.019C94.9867 137.615 95.1071 137.221 95.2471 136.837L96.3555 133.814H97.2344L95.2617 139.088C95.0501 139.658 94.8857 140.05 94.7686 140.265C94.6123 140.554 94.4333 140.766 94.2314 140.899C94.0296 141.036 93.7887 141.104 93.5088 141.104C93.3395 141.104 93.1507 141.069 92.9424 140.997Z" fill="#A6B2BD"/>
</g>
<defs>
<filter id="filter0_d" x="0" y="0" width="321" height="228" filterUnits="userSpaceOnUse" color-interpolation-filters="sRGB">
<feFlood flood-opacity="0" result="BackgroundImageFix"/>
<feColorMatrix in="SourceAlpha" type="matrix" values="0 0 0 0 0 0 0 0 0 0 0 0 0 0 0 0 0 0 127 0"/>
<feOffset dy="2"/>
<feGaussianBlur stdDeviation="2"/>
<feColorMatrix type="matrix" values="0 0 0 0 0.129604 0 0 0 0 0.114743 0 0 0 0 0.182631 0 0 0 0.0810752 0"/>
<feBlend mode="normal" in2="BackgroundImageFix" result="effect1_dropShadow"/>
<feBlend mode="normal" in="SourceGraphic" in2="effect1_dropShadow" result="shape"/>
</filter>
<clipPath id="clip0">
<rect width="273" height="136" fill="white" transform="translate(24.0264 44)"/>
</clipPath>
</defs>
</svg>
