<svg width="321" height="228" viewBox="0 0 321 228" fill="none" xmlns="http://www.w3.org/2000/svg">
<g>
<rect x="4" y="2" width="313" height="220" rx="1" fill="white"/>
</g>
<path fill-rule="evenodd" clip-rule="evenodd" d="M38 155C41.3137 155 44 152.314 44 149C44 145.686 41.3137 143 38 143C34.6863 143 32 145.686 32 149C32 152.314 34.6863 155 38 155Z" fill="#D6DFE7"/>
<path fill-rule="evenodd" clip-rule="evenodd" d="M59 155C62.3137 155 65 152.314 65 149C65 145.686 62.3137 143 59 143C55.6863 143 53 145.686 53 149C53 152.314 55.6863 155 59 155Z" fill="#D6DFE7"/>
<path fill-rule="evenodd" clip-rule="evenodd" d="M79 155C82.3137 155 85 152.314 85 149C85 145.686 82.3137 143 79 143C75.6863 143 73 145.686 73 149C73 152.314 75.6863 155 79 155Z" fill="#D6DFE7"/>
<rect x="188" y="73" width="104" height="6" fill="#D6DFE7"/>
<rect x="101" y="73" width="72" height="6" fill="#D6DFE7"/>
<rect x="188" y="87" width="104" height="6" fill="#D6DFE7"/>
<rect x="101" y="87" width="72" height="6" fill="#D6DFE7"/>
<rect x="101" y="101" width="72" height="6" fill="#D6DFE7"/>
<rect x="188" y="101" width="104" height="6" fill="#D6DFE7"/>
<path d="M87.5 91C87.5 107.292 74.2924 120.5 58 120.5C41.7076 120.5 28.5 107.292 28.5 91C28.5 74.7076 41.7076 61.5 58 61.5C74.2924 61.5 87.5 74.7076 87.5 91Z" fill="#F2F5F8" stroke="#E0E5EB"/>
<path d="M46.1953 94V86.8418H48.8955C49.3708 86.8418 49.7337 86.8646 49.9844 86.9102C50.3359 86.9688 50.6305 87.0811 50.8682 87.2471C51.1058 87.4098 51.2962 87.6393 51.4395 87.9355C51.5859 88.2318 51.6592 88.5573 51.6592 88.9121C51.6592 89.5208 51.4655 90.0368 51.0781 90.46C50.6908 90.8799 49.9909 91.0898 48.9785 91.0898H47.1426V94H46.1953ZM47.1426 90.2451H48.9932C49.6051 90.2451 50.0397 90.1312 50.2969 89.9033C50.554 89.6755 50.6826 89.3548 50.6826 88.9414C50.6826 88.6419 50.6061 88.3864 50.4531 88.1748C50.3034 87.96 50.1048 87.8184 49.8574 87.75C49.6979 87.7077 49.4033 87.6865 48.9736 87.6865H47.1426V90.2451ZM52.7529 94V86.8418H53.6318V89.4102C54.042 88.9349 54.5596 88.6973 55.1846 88.6973C55.5687 88.6973 55.9023 88.7738 56.1855 88.9268C56.4688 89.0765 56.6706 89.2848 56.791 89.5518C56.9147 89.8187 56.9766 90.2061 56.9766 90.7139V94H56.0977V90.7139C56.0977 90.2744 56.0016 89.9554 55.8096 89.7568C55.6208 89.555 55.3522 89.4541 55.0039 89.4541C54.7435 89.4541 54.4977 89.5225 54.2666 89.6592C54.0387 89.7926 53.876 89.9749 53.7783 90.2061C53.6807 90.4372 53.6318 90.7562 53.6318 91.1631V94H52.7529ZM57.9922 91.4072C57.9922 90.4469 58.2591 89.7357 58.793 89.2734C59.2389 88.8893 59.7826 88.6973 60.4238 88.6973C61.1367 88.6973 61.7194 88.9316 62.1719 89.4004C62.6243 89.8659 62.8506 90.5104 62.8506 91.334C62.8506 92.0013 62.7497 92.527 62.5479 92.9111C62.3493 93.292 62.0579 93.5882 61.6738 93.7998C61.293 94.0114 60.8763 94.1172 60.4238 94.1172C59.6979 94.1172 59.1104 93.8844 58.6611 93.4189C58.2152 92.9535 57.9922 92.2829 57.9922 91.4072ZM58.8955 91.4072C58.8955 92.0713 59.0404 92.5693 59.3301 92.9014C59.6198 93.2301 59.9844 93.3945 60.4238 93.3945C60.86 93.3945 61.223 93.2285 61.5127 92.8965C61.8024 92.5645 61.9473 92.0583 61.9473 91.3779C61.9473 90.7367 61.8008 90.2516 61.5078 89.9229C61.2181 89.5908 60.8568 89.4248 60.4238 89.4248C59.9844 89.4248 59.6198 89.5892 59.3301 89.918C59.0404 90.2467 58.8955 90.7432 58.8955 91.4072ZM65.8047 93.2139L65.9316 93.9902C65.6842 94.0423 65.4629 94.0684 65.2676 94.0684C64.9486 94.0684 64.7012 94.0179 64.5254 93.917C64.3496 93.8161 64.2259 93.6842 64.1543 93.5215C64.0827 93.3555 64.0469 93.0088 64.0469 92.4814V89.498H63.4023V88.8145H64.0469V87.5303L64.9209 87.0029V88.8145H65.8047V89.498H64.9209V92.5303C64.9209 92.7809 64.9355 92.9421 64.9648 93.0137C64.9974 93.0853 65.0479 93.1423 65.1162 93.1846C65.1878 93.2269 65.2887 93.248 65.4189 93.248C65.5166 93.248 65.6452 93.2367 65.8047 93.2139ZM66.3418 91.4072C66.3418 90.4469 66.6087 89.7357 67.1426 89.2734C67.5885 88.8893 68.1322 88.6973 68.7734 88.6973C69.4863 88.6973 70.069 88.9316 70.5215 89.4004C70.974 89.8659 71.2002 90.5104 71.2002 91.334C71.2002 92.0013 71.0993 92.527 70.8975 92.9111C70.6989 93.292 70.4076 93.5882 70.0234 93.7998C69.6426 94.0114 69.2259 94.1172 68.7734 94.1172C68.0475 94.1172 67.46 93.8844 67.0107 93.4189C66.5648 92.9535 66.3418 92.2829 66.3418 91.4072ZM67.2451 91.4072C67.2451 92.0713 67.39 92.5693 67.6797 92.9014C67.9694 93.2301 68.334 93.3945 68.7734 93.3945C69.2096 93.3945 69.5726 93.2285 69.8623 92.8965C70.152 92.5645 70.2969 92.0583 70.2969 91.3779C70.2969 90.7367 70.1504 90.2516 69.8574 89.9229C69.5677 89.5908 69.2064 89.4248 68.7734 89.4248C68.334 89.4248 67.9694 89.5892 67.6797 89.918C67.39 90.2467 67.2451 90.7432 67.2451 91.4072Z" fill="#A6B2BD"/>
<g clip-path="url(#clip0)">
<rect x="207" y="134" width="85" height="27" rx="1" fill="#F2F5F8" stroke="#E0E5EB" stroke-width="0.75"/>
<path d="M217.91 149V141.842H218.857V148.155H222.383V149H217.91ZM223.076 146.407C223.076 145.447 223.343 144.736 223.877 144.273C224.323 143.889 224.867 143.697 225.508 143.697C226.221 143.697 226.803 143.932 227.256 144.4C227.708 144.866 227.935 145.51 227.935 146.334C227.935 147.001 227.834 147.527 227.632 147.911C227.433 148.292 227.142 148.588 226.758 148.8C226.377 149.011 225.96 149.117 225.508 149.117C224.782 149.117 224.194 148.884 223.745 148.419C223.299 147.953 223.076 147.283 223.076 146.407ZM223.979 146.407C223.979 147.071 224.124 147.569 224.414 147.901C224.704 148.23 225.068 148.395 225.508 148.395C225.944 148.395 226.307 148.229 226.597 147.896C226.886 147.564 227.031 147.058 227.031 146.378C227.031 145.737 226.885 145.252 226.592 144.923C226.302 144.591 225.941 144.425 225.508 144.425C225.068 144.425 224.704 144.589 224.414 144.918C224.124 145.247 223.979 145.743 223.979 146.407ZM228.809 149.43L229.663 149.557C229.699 149.82 229.798 150.012 229.961 150.133C230.179 150.296 230.477 150.377 230.854 150.377C231.261 150.377 231.576 150.296 231.797 150.133C232.018 149.97 232.168 149.742 232.246 149.449C232.292 149.27 232.313 148.894 232.31 148.321C231.925 148.774 231.447 149 230.874 149C230.161 149 229.609 148.743 229.219 148.229C228.828 147.714 228.633 147.097 228.633 146.378C228.633 145.883 228.722 145.427 228.901 145.011C229.08 144.591 229.339 144.267 229.678 144.039C230.02 143.811 230.42 143.697 230.879 143.697C231.491 143.697 231.995 143.945 232.393 144.439V143.814H233.203V148.297C233.203 149.104 233.12 149.675 232.954 150.011C232.791 150.349 232.531 150.616 232.173 150.812C231.818 151.007 231.38 151.104 230.859 151.104C230.241 151.104 229.741 150.965 229.36 150.685C228.979 150.408 228.796 149.99 228.809 149.43ZM229.536 146.314C229.536 146.995 229.671 147.491 229.941 147.804C230.212 148.116 230.55 148.272 230.957 148.272C231.361 148.272 231.699 148.118 231.973 147.809C232.246 147.496 232.383 147.008 232.383 146.344C232.383 145.709 232.241 145.23 231.958 144.908C231.678 144.586 231.34 144.425 230.942 144.425C230.552 144.425 230.22 144.584 229.946 144.903C229.673 145.219 229.536 145.689 229.536 146.314ZM234.209 146.407C234.209 145.447 234.476 144.736 235.01 144.273C235.456 143.889 235.999 143.697 236.641 143.697C237.354 143.697 237.936 143.932 238.389 144.4C238.841 144.866 239.067 145.51 239.067 146.334C239.067 147.001 238.966 147.527 238.765 147.911C238.566 148.292 238.275 148.588 237.891 148.8C237.51 149.011 237.093 149.117 236.641 149.117C235.915 149.117 235.327 148.884 234.878 148.419C234.432 147.953 234.209 147.283 234.209 146.407ZM235.112 146.407C235.112 147.071 235.257 147.569 235.547 147.901C235.837 148.23 236.201 148.395 236.641 148.395C237.077 148.395 237.44 148.229 237.729 147.896C238.019 147.564 238.164 147.058 238.164 146.378C238.164 145.737 238.018 145.252 237.725 144.923C237.435 144.591 237.074 144.425 236.641 144.425C236.201 144.425 235.837 144.589 235.547 144.918C235.257 145.247 235.112 145.743 235.112 146.407ZM246.27 147.101L247.134 147.213C247.039 147.809 246.797 148.276 246.406 148.614C246.019 148.95 245.542 149.117 244.976 149.117C244.266 149.117 243.695 148.886 243.262 148.424C242.832 147.958 242.617 147.293 242.617 146.427C242.617 145.867 242.71 145.377 242.896 144.957C243.081 144.537 243.363 144.223 243.74 144.015C244.121 143.803 244.535 143.697 244.98 143.697C245.544 143.697 246.004 143.84 246.362 144.127C246.72 144.41 246.95 144.814 247.051 145.338L246.196 145.47C246.115 145.121 245.97 144.859 245.762 144.684C245.557 144.508 245.308 144.42 245.015 144.42C244.572 144.42 244.212 144.579 243.936 144.898C243.659 145.214 243.521 145.715 243.521 146.402C243.521 147.099 243.654 147.605 243.921 147.921C244.188 148.237 244.536 148.395 244.966 148.395C245.311 148.395 245.599 148.289 245.83 148.077C246.061 147.866 246.208 147.54 246.27 147.101ZM247.559 146.407C247.559 145.447 247.826 144.736 248.359 144.273C248.805 143.889 249.349 143.697 249.99 143.697C250.703 143.697 251.286 143.932 251.738 144.4C252.191 144.866 252.417 145.51 252.417 146.334C252.417 147.001 252.316 147.527 252.114 147.911C251.916 148.292 251.624 148.588 251.24 148.8C250.859 149.011 250.443 149.117 249.99 149.117C249.264 149.117 248.677 148.884 248.228 148.419C247.782 147.953 247.559 147.283 247.559 146.407ZM248.462 146.407C248.462 147.071 248.607 147.569 248.896 147.901C249.186 148.23 249.551 148.395 249.99 148.395C250.426 148.395 250.789 148.229 251.079 147.896C251.369 147.564 251.514 147.058 251.514 146.378C251.514 145.737 251.367 145.252 251.074 144.923C250.785 144.591 250.423 144.425 249.99 144.425C249.551 144.425 249.186 144.589 248.896 144.918C248.607 145.247 248.462 145.743 248.462 146.407ZM253.452 149V143.814H254.238V144.542C254.401 144.288 254.618 144.085 254.888 143.932C255.158 143.775 255.465 143.697 255.811 143.697C256.195 143.697 256.509 143.777 256.753 143.937C257 144.096 257.174 144.319 257.275 144.605C257.686 144 258.219 143.697 258.877 143.697C259.391 143.697 259.787 143.84 260.063 144.127C260.34 144.41 260.479 144.848 260.479 145.44V149H259.604V145.733C259.604 145.382 259.575 145.13 259.517 144.977C259.461 144.82 259.359 144.695 259.209 144.601C259.059 144.506 258.883 144.459 258.682 144.459C258.317 144.459 258.014 144.581 257.773 144.825C257.533 145.066 257.412 145.453 257.412 145.987V149H256.533V145.631C256.533 145.24 256.462 144.947 256.318 144.752C256.175 144.557 255.941 144.459 255.615 144.459C255.368 144.459 255.138 144.524 254.927 144.654C254.718 144.785 254.567 144.975 254.473 145.226C254.378 145.476 254.331 145.838 254.331 146.31V149H253.452ZM261.782 150.987V143.814H262.583V144.488C262.772 144.225 262.985 144.028 263.223 143.897C263.46 143.764 263.748 143.697 264.087 143.697C264.53 143.697 264.92 143.811 265.259 144.039C265.597 144.267 265.853 144.589 266.025 145.006C266.198 145.419 266.284 145.873 266.284 146.368C266.284 146.899 266.188 147.377 265.996 147.804C265.807 148.227 265.531 148.552 265.166 148.78C264.805 149.005 264.424 149.117 264.023 149.117C263.73 149.117 263.467 149.055 263.232 148.932C263.001 148.808 262.811 148.652 262.661 148.463V150.987H261.782ZM262.578 146.437C262.578 147.104 262.713 147.597 262.983 147.916C263.254 148.235 263.581 148.395 263.965 148.395C264.355 148.395 264.689 148.23 264.966 147.901C265.246 147.569 265.386 147.057 265.386 146.363C265.386 145.702 265.249 145.208 264.976 144.879C264.705 144.55 264.382 144.386 264.004 144.386C263.63 144.386 263.298 144.562 263.008 144.913C262.721 145.261 262.578 145.769 262.578 146.437ZM270.732 148.36C270.407 148.637 270.093 148.832 269.79 148.946C269.491 149.06 269.168 149.117 268.823 149.117C268.254 149.117 267.816 148.979 267.51 148.702C267.204 148.422 267.051 148.066 267.051 147.633C267.051 147.379 267.108 147.148 267.222 146.939C267.339 146.728 267.49 146.559 267.676 146.432C267.865 146.305 268.076 146.209 268.311 146.144C268.483 146.098 268.743 146.054 269.092 146.012C269.801 145.927 270.324 145.826 270.659 145.709C270.662 145.589 270.664 145.512 270.664 145.479C270.664 145.121 270.581 144.869 270.415 144.723C270.19 144.524 269.857 144.425 269.414 144.425C269.001 144.425 268.695 144.498 268.496 144.645C268.301 144.788 268.156 145.043 268.062 145.411L267.202 145.294C267.28 144.926 267.409 144.63 267.588 144.405C267.767 144.177 268.026 144.003 268.364 143.883C268.703 143.759 269.095 143.697 269.541 143.697C269.984 143.697 270.343 143.749 270.62 143.854C270.897 143.958 271.1 144.09 271.23 144.249C271.361 144.405 271.452 144.604 271.504 144.845C271.533 144.994 271.548 145.265 271.548 145.655V146.827C271.548 147.644 271.566 148.162 271.602 148.38C271.641 148.595 271.715 148.801 271.826 149H270.908C270.817 148.818 270.758 148.604 270.732 148.36ZM270.659 146.397C270.34 146.528 269.862 146.638 269.224 146.729C268.862 146.782 268.607 146.84 268.457 146.905C268.307 146.97 268.192 147.066 268.11 147.193C268.029 147.317 267.988 147.455 267.988 147.608C267.988 147.843 268.076 148.038 268.252 148.194C268.431 148.351 268.691 148.429 269.033 148.429C269.372 148.429 269.673 148.355 269.937 148.209C270.2 148.059 270.394 147.856 270.518 147.599C270.612 147.4 270.659 147.107 270.659 146.72V146.397ZM272.915 149V143.814H273.706V144.552C274.087 143.982 274.637 143.697 275.356 143.697C275.669 143.697 275.955 143.754 276.216 143.868C276.479 143.979 276.676 144.125 276.807 144.308C276.937 144.49 277.028 144.706 277.08 144.957C277.113 145.12 277.129 145.405 277.129 145.812V149H276.25V145.846C276.25 145.488 276.216 145.221 276.147 145.045C276.079 144.866 275.957 144.724 275.781 144.62C275.609 144.513 275.405 144.459 275.171 144.459C274.797 144.459 274.473 144.578 274.199 144.815C273.929 145.053 273.794 145.504 273.794 146.168V149H272.915ZM278.442 150.997L278.345 150.172C278.537 150.224 278.704 150.25 278.848 150.25C279.043 150.25 279.199 150.217 279.316 150.152C279.434 150.087 279.53 149.996 279.604 149.879C279.66 149.791 279.749 149.573 279.873 149.225C279.889 149.176 279.915 149.104 279.951 149.01L277.983 143.814H278.931L280.01 146.817C280.15 147.198 280.275 147.599 280.386 148.019C280.487 147.615 280.607 147.221 280.747 146.837L281.855 143.814H282.734L280.762 149.088C280.55 149.658 280.386 150.05 280.269 150.265C280.112 150.554 279.933 150.766 279.731 150.899C279.53 151.036 279.289 151.104 279.009 151.104C278.84 151.104 278.651 151.069 278.442 150.997Z" fill="#A6B2BD"/>
</g>
<defs>
<filter id="filter0_d" x="0" y="0" width="321" height="228" filterUnits="userSpaceOnUse" color-interpolation-filters="sRGB">
<feFlood flood-opacity="0" result="BackgroundImageFix"/>
<feColorMatrix in="SourceAlpha" type="matrix" values="0 0 0 0 0 0 0 0 0 0 0 0 0 0 0 0 0 0 127 0"/>
<feOffset dy="2"/>
<feGaussianBlur stdDeviation="2"/>
<feColorMatrix type="matrix" values="0 0 0 0 0.129604 0 0 0 0 0.114743 0 0 0 0 0.182631 0 0 0 0.0810752 0"/>
<feBlend mode="normal" in2="BackgroundImageFix" result="effect1_dropShadow"/>
<feBlend mode="normal" in="SourceGraphic" in2="effect1_dropShadow" result="shape"/>
</filter>
<clipPath id="clip0">
<rect width="85" height="27" fill="white" transform="translate(207 134)"/>
</clipPath>
</defs>
</svg>
