<svg width="321" height="228" viewBox="0 0 321 228" fill="none" xmlns="http://www.w3.org/2000/svg">
<g>
<rect x="4" y="2" width="313" height="220" rx="1" fill="white"/>
</g>
<path fill-rule="evenodd" clip-rule="evenodd" d="M44 180C47.3137 180 50 177.314 50 174C50 170.686 47.3137 168 44 168C40.6863 168 38 170.686 38 174C38 177.314 40.6863 180 44 180Z" fill="#D6DFE7"/>
<path fill-rule="evenodd" clip-rule="evenodd" d="M65 180C68.3137 180 71 177.314 71 174C71 170.686 68.3137 168 65 168C61.6863 168 59 170.686 59 174C59 177.314 61.6863 180 65 180Z" fill="#D6DFE7"/>
<path fill-rule="evenodd" clip-rule="evenodd" d="M85 180C88.3137 180 91 177.314 91 174C91 170.686 88.3137 168 85 168C81.6863 168 79 170.686 79 174C79 177.314 81.6863 180 85 180Z" fill="#D6DFE7"/>
<rect x="38" y="55" width="85" height="6" fill="#D6DFE7"/>
<rect x="38" y="69" width="85" height="6" fill="#D6DFE7"/>
<rect x="38" y="83" width="85" height="6" fill="#D6DFE7"/>
<rect x="38" y="111" width="145" height="6" fill="#D6DFE7"/>
<rect x="38" y="125" width="145" height="6" fill="#D6DFE7"/>
<rect x="38" y="139" width="145" height="6" fill="#D6DFE7"/>
<path d="M282.5 73C282.5 89.2924 269.292 102.5 253 102.5C236.708 102.5 223.5 89.2924 223.5 73C223.5 56.7076 236.708 43.5 253 43.5C269.292 43.5 282.5 56.7076 282.5 73Z" fill="#F2F5F8" stroke="#E0E5EB"/>
<path d="M241.195 76V68.8418H243.896C244.371 68.8418 244.734 68.8646 244.984 68.9102C245.336 68.9688 245.631 69.0811 245.868 69.2471C246.106 69.4098 246.296 69.6393 246.439 69.9355C246.586 70.2318 246.659 70.5573 246.659 70.9121C246.659 71.5208 246.465 72.0368 246.078 72.46C245.691 72.8799 244.991 73.0898 243.979 73.0898H242.143V76H241.195ZM242.143 72.2451H243.993C244.605 72.2451 245.04 72.1312 245.297 71.9033C245.554 71.6755 245.683 71.3548 245.683 70.9414C245.683 70.6419 245.606 70.3864 245.453 70.1748C245.303 69.96 245.105 69.8184 244.857 69.75C244.698 69.7077 244.403 69.6865 243.974 69.6865H242.143V72.2451ZM247.753 76V68.8418H248.632V71.4102C249.042 70.9349 249.56 70.6973 250.185 70.6973C250.569 70.6973 250.902 70.7738 251.186 70.9268C251.469 71.0765 251.671 71.2848 251.791 71.5518C251.915 71.8187 251.977 72.2061 251.977 72.7139V76H251.098V72.7139C251.098 72.2744 251.002 71.9554 250.81 71.7568C250.621 71.555 250.352 71.4541 250.004 71.4541C249.743 71.4541 249.498 71.5225 249.267 71.6592C249.039 71.7926 248.876 71.9749 248.778 72.2061C248.681 72.4372 248.632 72.7562 248.632 73.1631V76H247.753ZM252.992 73.4072C252.992 72.4469 253.259 71.7357 253.793 71.2734C254.239 70.8893 254.783 70.6973 255.424 70.6973C256.137 70.6973 256.719 70.9316 257.172 71.4004C257.624 71.8659 257.851 72.5104 257.851 73.334C257.851 74.0013 257.75 74.527 257.548 74.9111C257.349 75.292 257.058 75.5882 256.674 75.7998C256.293 76.0114 255.876 76.1172 255.424 76.1172C254.698 76.1172 254.11 75.8844 253.661 75.4189C253.215 74.9535 252.992 74.2829 252.992 73.4072ZM253.896 73.4072C253.896 74.0713 254.04 74.5693 254.33 74.9014C254.62 75.2301 254.984 75.3945 255.424 75.3945C255.86 75.3945 256.223 75.2285 256.513 74.8965C256.802 74.5645 256.947 74.0583 256.947 73.3779C256.947 72.7367 256.801 72.2516 256.508 71.9229C256.218 71.5908 255.857 71.4248 255.424 71.4248C254.984 71.4248 254.62 71.5892 254.33 71.918C254.04 72.2467 253.896 72.7432 253.896 73.4072ZM260.805 75.2139L260.932 75.9902C260.684 76.0423 260.463 76.0684 260.268 76.0684C259.949 76.0684 259.701 76.0179 259.525 75.917C259.35 75.8161 259.226 75.6842 259.154 75.5215C259.083 75.3555 259.047 75.0088 259.047 74.4814V71.498H258.402V70.8145H259.047V69.5303L259.921 69.0029V70.8145H260.805V71.498H259.921V74.5303C259.921 74.7809 259.936 74.9421 259.965 75.0137C259.997 75.0853 260.048 75.1423 260.116 75.1846C260.188 75.2269 260.289 75.248 260.419 75.248C260.517 75.248 260.645 75.2367 260.805 75.2139ZM261.342 73.4072C261.342 72.4469 261.609 71.7357 262.143 71.2734C262.589 70.8893 263.132 70.6973 263.773 70.6973C264.486 70.6973 265.069 70.9316 265.521 71.4004C265.974 71.8659 266.2 72.5104 266.2 73.334C266.2 74.0013 266.099 74.527 265.897 74.9111C265.699 75.292 265.408 75.5882 265.023 75.7998C264.643 76.0114 264.226 76.1172 263.773 76.1172C263.048 76.1172 262.46 75.8844 262.011 75.4189C261.565 74.9535 261.342 74.2829 261.342 73.4072ZM262.245 73.4072C262.245 74.0713 262.39 74.5693 262.68 74.9014C262.969 75.2301 263.334 75.3945 263.773 75.3945C264.21 75.3945 264.573 75.2285 264.862 74.8965C265.152 74.5645 265.297 74.0583 265.297 73.3779C265.297 72.7367 265.15 72.2516 264.857 71.9229C264.568 71.5908 264.206 71.4248 263.773 71.4248C263.334 71.4248 262.969 71.5892 262.68 71.918C262.39 72.2467 262.245 72.7432 262.245 73.4072Z" fill="#A6B2BD"/>
<g clip-path="url(#clip0)">
<rect x="198" y="159" width="85" height="27" rx="1" fill="#F2F5F8" stroke="#E0E5EB" stroke-width="0.75"/>
<path d="M208.91 174V166.842H209.857V173.155H213.383V174H208.91ZM214.076 171.407C214.076 170.447 214.343 169.736 214.877 169.273C215.323 168.889 215.867 168.697 216.508 168.697C217.221 168.697 217.803 168.932 218.256 169.4C218.708 169.866 218.935 170.51 218.935 171.334C218.935 172.001 218.834 172.527 218.632 172.911C218.433 173.292 218.142 173.588 217.758 173.8C217.377 174.011 216.96 174.117 216.508 174.117C215.782 174.117 215.194 173.884 214.745 173.419C214.299 172.953 214.076 172.283 214.076 171.407ZM214.979 171.407C214.979 172.071 215.124 172.569 215.414 172.901C215.704 173.23 216.068 173.395 216.508 173.395C216.944 173.395 217.307 173.229 217.597 172.896C217.886 172.564 218.031 172.058 218.031 171.378C218.031 170.737 217.885 170.252 217.592 169.923C217.302 169.591 216.941 169.425 216.508 169.425C216.068 169.425 215.704 169.589 215.414 169.918C215.124 170.247 214.979 170.743 214.979 171.407ZM219.809 174.43L220.663 174.557C220.699 174.82 220.798 175.012 220.961 175.133C221.179 175.296 221.477 175.377 221.854 175.377C222.261 175.377 222.576 175.296 222.797 175.133C223.018 174.97 223.168 174.742 223.246 174.449C223.292 174.27 223.313 173.894 223.31 173.321C222.925 173.774 222.447 174 221.874 174C221.161 174 220.609 173.743 220.219 173.229C219.828 172.714 219.633 172.097 219.633 171.378C219.633 170.883 219.722 170.427 219.901 170.011C220.08 169.591 220.339 169.267 220.678 169.039C221.02 168.811 221.42 168.697 221.879 168.697C222.491 168.697 222.995 168.945 223.393 169.439V168.814H224.203V173.297C224.203 174.104 224.12 174.675 223.954 175.011C223.791 175.349 223.531 175.616 223.173 175.812C222.818 176.007 222.38 176.104 221.859 176.104C221.241 176.104 220.741 175.965 220.36 175.685C219.979 175.408 219.796 174.99 219.809 174.43ZM220.536 171.314C220.536 171.995 220.671 172.491 220.941 172.804C221.212 173.116 221.55 173.272 221.957 173.272C222.361 173.272 222.699 173.118 222.973 172.809C223.246 172.496 223.383 172.008 223.383 171.344C223.383 170.709 223.241 170.23 222.958 169.908C222.678 169.586 222.34 169.425 221.942 169.425C221.552 169.425 221.22 169.584 220.946 169.903C220.673 170.219 220.536 170.689 220.536 171.314ZM225.209 171.407C225.209 170.447 225.476 169.736 226.01 169.273C226.456 168.889 226.999 168.697 227.641 168.697C228.354 168.697 228.936 168.932 229.389 169.4C229.841 169.866 230.067 170.51 230.067 171.334C230.067 172.001 229.966 172.527 229.765 172.911C229.566 173.292 229.275 173.588 228.891 173.8C228.51 174.011 228.093 174.117 227.641 174.117C226.915 174.117 226.327 173.884 225.878 173.419C225.432 172.953 225.209 172.283 225.209 171.407ZM226.112 171.407C226.112 172.071 226.257 172.569 226.547 172.901C226.837 173.23 227.201 173.395 227.641 173.395C228.077 173.395 228.44 173.229 228.729 172.896C229.019 172.564 229.164 172.058 229.164 171.378C229.164 170.737 229.018 170.252 228.725 169.923C228.435 169.591 228.074 169.425 227.641 169.425C227.201 169.425 226.837 169.589 226.547 169.918C226.257 170.247 226.112 170.743 226.112 171.407ZM237.27 172.101L238.134 172.213C238.039 172.809 237.797 173.276 237.406 173.614C237.019 173.95 236.542 174.117 235.976 174.117C235.266 174.117 234.695 173.886 234.262 173.424C233.832 172.958 233.617 172.293 233.617 171.427C233.617 170.867 233.71 170.377 233.896 169.957C234.081 169.537 234.363 169.223 234.74 169.015C235.121 168.803 235.535 168.697 235.98 168.697C236.544 168.697 237.004 168.84 237.362 169.127C237.72 169.41 237.95 169.814 238.051 170.338L237.196 170.47C237.115 170.121 236.97 169.859 236.762 169.684C236.557 169.508 236.308 169.42 236.015 169.42C235.572 169.42 235.212 169.579 234.936 169.898C234.659 170.214 234.521 170.715 234.521 171.402C234.521 172.099 234.654 172.605 234.921 172.921C235.188 173.237 235.536 173.395 235.966 173.395C236.311 173.395 236.599 173.289 236.83 173.077C237.061 172.866 237.208 172.54 237.27 172.101ZM238.559 171.407C238.559 170.447 238.826 169.736 239.359 169.273C239.805 168.889 240.349 168.697 240.99 168.697C241.703 168.697 242.286 168.932 242.738 169.4C243.191 169.866 243.417 170.51 243.417 171.334C243.417 172.001 243.316 172.527 243.114 172.911C242.916 173.292 242.624 173.588 242.24 173.8C241.859 174.011 241.443 174.117 240.99 174.117C240.264 174.117 239.677 173.884 239.228 173.419C238.782 172.953 238.559 172.283 238.559 171.407ZM239.462 171.407C239.462 172.071 239.607 172.569 239.896 172.901C240.186 173.23 240.551 173.395 240.99 173.395C241.426 173.395 241.789 173.229 242.079 172.896C242.369 172.564 242.514 172.058 242.514 171.378C242.514 170.737 242.367 170.252 242.074 169.923C241.785 169.591 241.423 169.425 240.99 169.425C240.551 169.425 240.186 169.589 239.896 169.918C239.607 170.247 239.462 170.743 239.462 171.407ZM244.452 174V168.814H245.238V169.542C245.401 169.288 245.618 169.085 245.888 168.932C246.158 168.775 246.465 168.697 246.811 168.697C247.195 168.697 247.509 168.777 247.753 168.937C248 169.096 248.174 169.319 248.275 169.605C248.686 169 249.219 168.697 249.877 168.697C250.391 168.697 250.787 168.84 251.063 169.127C251.34 169.41 251.479 169.848 251.479 170.44V174H250.604V170.733C250.604 170.382 250.575 170.13 250.517 169.977C250.461 169.82 250.359 169.695 250.209 169.601C250.059 169.506 249.883 169.459 249.682 169.459C249.317 169.459 249.014 169.581 248.773 169.825C248.533 170.066 248.412 170.453 248.412 170.987V174H247.533V170.631C247.533 170.24 247.462 169.947 247.318 169.752C247.175 169.557 246.941 169.459 246.615 169.459C246.368 169.459 246.138 169.524 245.927 169.654C245.718 169.785 245.567 169.975 245.473 170.226C245.378 170.476 245.331 170.838 245.331 171.31V174H244.452ZM252.782 175.987V168.814H253.583V169.488C253.772 169.225 253.985 169.028 254.223 168.897C254.46 168.764 254.748 168.697 255.087 168.697C255.53 168.697 255.92 168.811 256.259 169.039C256.597 169.267 256.853 169.589 257.025 170.006C257.198 170.419 257.284 170.873 257.284 171.368C257.284 171.899 257.188 172.377 256.996 172.804C256.807 173.227 256.531 173.552 256.166 173.78C255.805 174.005 255.424 174.117 255.023 174.117C254.73 174.117 254.467 174.055 254.232 173.932C254.001 173.808 253.811 173.652 253.661 173.463V175.987H252.782ZM253.578 171.437C253.578 172.104 253.713 172.597 253.983 172.916C254.254 173.235 254.581 173.395 254.965 173.395C255.355 173.395 255.689 173.23 255.966 172.901C256.246 172.569 256.386 172.057 256.386 171.363C256.386 170.702 256.249 170.208 255.976 169.879C255.705 169.55 255.382 169.386 255.004 169.386C254.63 169.386 254.298 169.562 254.008 169.913C253.721 170.261 253.578 170.769 253.578 171.437ZM261.732 173.36C261.407 173.637 261.093 173.832 260.79 173.946C260.491 174.06 260.168 174.117 259.823 174.117C259.254 174.117 258.816 173.979 258.51 173.702C258.204 173.422 258.051 173.066 258.051 172.633C258.051 172.379 258.108 172.148 258.222 171.939C258.339 171.728 258.49 171.559 258.676 171.432C258.865 171.305 259.076 171.209 259.311 171.144C259.483 171.098 259.743 171.054 260.092 171.012C260.801 170.927 261.324 170.826 261.659 170.709C261.662 170.589 261.664 170.512 261.664 170.479C261.664 170.121 261.581 169.869 261.415 169.723C261.19 169.524 260.857 169.425 260.414 169.425C260.001 169.425 259.695 169.498 259.496 169.645C259.301 169.788 259.156 170.043 259.062 170.411L258.202 170.294C258.28 169.926 258.409 169.63 258.588 169.405C258.767 169.177 259.026 169.003 259.364 168.883C259.703 168.759 260.095 168.697 260.541 168.697C260.984 168.697 261.343 168.749 261.62 168.854C261.897 168.958 262.1 169.09 262.23 169.249C262.361 169.405 262.452 169.604 262.504 169.845C262.533 169.994 262.548 170.265 262.548 170.655V171.827C262.548 172.644 262.566 173.162 262.602 173.38C262.641 173.595 262.715 173.801 262.826 174H261.908C261.817 173.818 261.758 173.604 261.732 173.36ZM261.659 171.397C261.34 171.528 260.862 171.638 260.224 171.729C259.862 171.782 259.607 171.84 259.457 171.905C259.307 171.97 259.192 172.066 259.11 172.193C259.029 172.317 258.988 172.455 258.988 172.608C258.988 172.843 259.076 173.038 259.252 173.194C259.431 173.351 259.691 173.429 260.033 173.429C260.372 173.429 260.673 173.355 260.937 173.209C261.2 173.059 261.394 172.856 261.518 172.599C261.612 172.4 261.659 172.107 261.659 171.72V171.397ZM263.915 174V168.814H264.706V169.552C265.087 168.982 265.637 168.697 266.356 168.697C266.669 168.697 266.955 168.754 267.216 168.868C267.479 168.979 267.676 169.125 267.807 169.308C267.937 169.49 268.028 169.706 268.08 169.957C268.113 170.12 268.129 170.405 268.129 170.812V174H267.25V170.846C267.25 170.488 267.216 170.221 267.147 170.045C267.079 169.866 266.957 169.724 266.781 169.62C266.609 169.513 266.405 169.459 266.171 169.459C265.797 169.459 265.473 169.578 265.199 169.815C264.929 170.053 264.794 170.504 264.794 171.168V174H263.915ZM269.442 175.997L269.345 175.172C269.537 175.224 269.704 175.25 269.848 175.25C270.043 175.25 270.199 175.217 270.316 175.152C270.434 175.087 270.53 174.996 270.604 174.879C270.66 174.791 270.749 174.573 270.873 174.225C270.889 174.176 270.915 174.104 270.951 174.01L268.983 168.814H269.931L271.01 171.817C271.15 172.198 271.275 172.599 271.386 173.019C271.487 172.615 271.607 172.221 271.747 171.837L272.855 168.814H273.734L271.762 174.088C271.55 174.658 271.386 175.05 271.269 175.265C271.112 175.554 270.933 175.766 270.731 175.899C270.53 176.036 270.289 176.104 270.009 176.104C269.84 176.104 269.651 176.069 269.442 175.997Z" fill="#A6B2BD"/>
</g>
<defs>
<filter id="filter0_d" x="0" y="0" width="321" height="228" filterUnits="userSpaceOnUse" color-interpolation-filters="sRGB">
<feFlood flood-opacity="0" result="BackgroundImageFix"/>
<feColorMatrix in="SourceAlpha" type="matrix" values="0 0 0 0 0 0 0 0 0 0 0 0 0 0 0 0 0 0 127 0"/>
<feOffset dy="2"/>
<feGaussianBlur stdDeviation="2"/>
<feColorMatrix type="matrix" values="0 0 0 0 0.129604 0 0 0 0 0.114743 0 0 0 0 0.182631 0 0 0 0.0810752 0"/>
<feBlend mode="normal" in2="BackgroundImageFix" result="effect1_dropShadow"/>
<feBlend mode="normal" in="SourceGraphic" in2="effect1_dropShadow" result="shape"/>
</filter>
<clipPath id="clip0">
<rect width="85" height="27" fill="white" transform="translate(198 159)"/>
</clipPath>
</defs>
</svg>
