<svg width="13" height="13" viewBox="0 0 13 13" fill="white" xmlns="http://www.w3.org/2000/svg">
<path fill-rule="evenodd" clip-rule="evenodd" d="M6.49996 2.4375C3.79163 2.4375 1.47871 4.12208 0.541626 6.5C1.47871 8.87792 3.79163 10.5625 6.49996 10.5625C9.20829 10.5625 11.5212 8.87792 12.4583 6.5C11.5212 4.12208 9.20829 2.4375 6.49996 2.4375V2.4375ZM6.49996 9.20833C5.00496 9.20833 3.79163 7.995 3.79163 6.5C3.79163 5.005 5.00496 3.79167 6.49996 3.79167C7.99496 3.79167 9.20829 5.005 9.20829 6.5C9.20829 7.995 7.99496 9.20833 6.49996 9.20833V9.20833ZM6.49996 4.875C5.60079 4.875 4.87496 5.60083 4.87496 6.5C4.87496 7.39917 5.60079 8.125 6.49996 8.125C7.39913 8.125 8.12496 7.39917 8.12496 6.5C8.12496 5.60083 7.39913 4.875 6.49996 4.875V4.875Z" fill="inherit"/>
<mask id="mask0" mask-type="alpha" maskUnits="userSpaceOnUse" x="0" y="2" width="13" height="9">
<path fill-rule="evenodd" clip-rule="evenodd" d="M6.49996 2.4375C3.79163 2.4375 1.47871 4.12208 0.541626 6.5C1.47871 8.87792 3.79163 10.5625 6.49996 10.5625C9.20829 10.5625 11.5212 8.87792 12.4583 6.5C11.5212 4.12208 9.20829 2.4375 6.49996 2.4375V2.4375ZM6.49996 9.20833C5.00496 9.20833 3.79163 7.995 3.79163 6.5C3.79163 5.005 5.00496 3.79167 6.49996 3.79167C7.99496 3.79167 9.20829 5.005 9.20829 6.5C9.20829 7.995 7.99496 9.20833 6.49996 9.20833V9.20833ZM6.49996 4.875C5.60079 4.875 4.87496 5.60083 4.87496 6.5C4.87496 7.39917 5.60079 8.125 6.49996 8.125C7.39913 8.125 8.12496 7.39917 8.12496 6.5C8.12496 5.60083 7.39913 4.875 6.49996 4.875V4.875Z" fill="inherit"/>
</mask>
<g mask="url(#mask0)">
</g>
</svg>
