<svg width="18" height="18" viewBox="0 0 18 18" fill="none" xmlns="http://www.w3.org/2000/svg">
<path d="M1.73876 9.77825C1.50417 9.54366 1.38688 9.25042 1.38687 8.89853C1.38688 8.19475 1.94403 7.63759 2.61849 7.66691H15.0519C15.7557 7.66691 16.3129 8.22407 16.2835 8.89853C16.2835 9.60231 15.7264 10.1595 15.0519 10.1301H2.61849C2.2666 10.1301 1.97336 10.0128 1.73876 9.77825Z" fill="#7A7C8E"/>
<path d="M7.95548 15.995C7.72089 15.7604 7.60359 15.4671 7.60359 15.1152L7.60359 2.68181C7.60359 1.97803 8.16075 1.42087 8.83521 1.4502C9.53898 1.4502 10.0961 2.00736 10.0668 2.68181L10.0668 15.1152C10.0668 15.819 9.50966 16.3762 8.83521 16.3469C8.48332 16.3469 8.19007 16.2296 7.95548 15.995Z" fill="#7A7C8E"/>
</svg>
