<svg width="22" height="22" viewBox="0 0 22 22" fill="none" xmlns="http://www.w3.org/2000/svg">
<path fill-rule="evenodd" clip-rule="evenodd" d="M9.82266 0.459766C9.86666 0.194666 10.0978 0 10.3662 0H11.6338C11.9033 0 12.1322 0.194666 12.1773 0.459766L12.4889 2.33535C13.025 2.4275 13.5435 2.56934 14.0422 2.7543L15.2518 1.28477C15.4223 1.07797 15.7189 1.02381 15.9521 1.15801L17.0479 1.7918C17.28 1.926 17.3831 2.20806 17.2885 2.45996L16.6225 4.23887C17.0354 4.58304 17.417 4.96456 17.7611 5.37754L19.54 4.71152C19.7908 4.61692 20.074 4.71895 20.2082 4.95215L20.842 6.04785C20.9762 6.28105 20.9231 6.57774 20.7152 6.74824L19.2457 7.95996C19.4303 8.45809 19.5726 8.97571 19.6646 9.51113L21.5402 9.82266C21.8053 9.86666 22 10.0978 22 10.3662V11.6338C22 11.9033 21.8053 12.1322 21.5402 12.1773L19.6646 12.4889C19.5725 13.025 19.4307 13.5435 19.2457 14.0422L20.7152 15.2518C20.922 15.4223 20.9762 15.7189 20.842 15.9521L20.2082 17.0479C20.074 17.28 19.7919 17.3831 19.54 17.2885L17.7611 16.6225C17.417 17.0354 17.0354 17.417 16.6225 17.7611L17.2885 19.54C17.3831 19.7908 17.2811 20.074 17.0479 20.2082L15.9521 20.842C15.7189 20.9762 15.4223 20.9231 15.2518 20.7152L14.04 19.2457C13.5419 19.4303 13.0243 19.5726 12.4889 19.6646L12.1773 21.5402C12.1333 21.8053 11.9022 22 11.6338 22H10.3662C10.0967 22 9.86776 21.8053 9.82266 21.5402L9.51113 19.6646C8.97503 19.5725 8.45652 19.4307 7.95781 19.2457L6.74824 20.7152C6.57774 20.922 6.28105 20.9762 6.04785 20.842L4.95215 20.2082C4.72005 20.074 4.61692 19.7919 4.71152 19.54L5.37754 17.7611C4.96456 17.417 4.58304 17.0354 4.23887 16.6225L2.45996 17.2885C2.20916 17.3831 1.926 17.2811 1.7918 17.0479L1.15801 15.9521C1.02381 15.7189 1.07687 15.4223 1.28477 15.2518L2.7543 14.04C2.56968 13.5419 2.42739 13.0243 2.33535 12.4889L0.459766 12.1773C0.194666 12.1333 0 11.9022 0 11.6338V10.3662C0 10.0967 0.194666 9.86776 0.459766 9.82266L2.33535 9.51113C2.42739 8.97571 2.56968 8.45809 2.7543 7.95996L1.28477 6.74824C1.07687 6.57774 1.02271 6.28105 1.15801 6.04785L1.7918 4.95215C1.926 4.71895 2.20916 4.61692 2.45996 4.71152L4.23887 5.37754C4.58304 4.96456 4.96456 4.58304 5.37754 4.23887L4.71152 2.45996C4.61692 2.20916 4.71895 1.926 4.95215 1.7918L6.04785 1.15801C6.28105 1.02271 6.57774 1.07687 6.74824 1.28477L7.95996 2.7543C8.45809 2.56968 8.97571 2.42739 9.51113 2.33535L9.82266 0.459766ZM9.9 7.89121V4.49883C6.7709 5.02018 4.4 7.71776 4.4 11C4.4 11.8107 4.55205 12.5827 4.8168 13.2988L7.75586 11.6037C7.71875 11.4046 7.70006 11.2025 7.7 11C7.70105 9.60243 8.58235 8.35707 9.9 7.89121ZM12.1 4.49883C15.2291 5.02018 17.6 7.71776 17.6 11C17.6 11.8117 17.4464 12.5841 17.1811 13.301L14.242 11.6016C14.2797 11.4032 14.2991 11.2019 14.3 11C14.298 9.60322 13.4169 8.35895 12.1 7.89336V4.49883ZM16.0918 15.2088L13.142 13.5051C12.5454 14.0167 11.7859 14.2985 11 14.3C10.2137 14.2996 9.45329 14.0185 8.85586 13.5072L5.9082 15.2088C7.11657 16.6716 8.94451 17.6 11 17.6C13.0555 17.6 14.8834 16.6716 16.0918 15.2088Z" fill="black"/>
</svg>
