<svg width="18" height="17" viewBox="0 0 18 17" fill="#A79AC6" xmlns="http://www.w3.org/2000/svg">
<path fill-rule="evenodd" clip-rule="evenodd" d="M13.2249 1.3165L17.3582 11.2915C17.7082 12.1332 17.2999 13.1082 16.4499 13.4582L10.3165 15.9998C10.1082 16.0832 9.89155 16.1248 9.67488 16.1248C9.02488 16.1165 8.40821 15.7332 8.14988 15.0998L4.01655 5.12484C3.92488 4.90817 3.88321 4.68317 3.89155 4.45817C3.90821 3.8165 4.29155 3.2165 4.91655 2.95817L11.0582 0.416504C11.2749 0.324837 11.4999 0.291504 11.7165 0.291504C12.3582 0.308171 12.9665 0.691504 13.2249 1.3165ZM2.22488 14.8415L1.10821 14.3748C0.266546 14.0248 -0.141787 13.0498 0.199879 12.1998L2.22488 7.3165V14.8415ZM5.56655 5.2915C5.10821 5.2915 4.73321 4.9165 4.73321 4.45817C4.73321 3.99984 5.10821 3.62484 5.56655 3.62484C6.02488 3.62484 6.39988 3.99984 6.39988 4.45817C6.39988 4.9165 6.02488 5.2915 5.56655 5.2915ZM5.56655 16.1248C4.64988 16.1248 3.89988 15.3748 3.89988 14.4582V9.17484L6.77488 16.1248H5.56655Z" fill="inherit"/>
</svg>
