<svg width="15" height="15" viewBox="0 0 15 15" fill="none" xmlns="http://www.w3.org/2000/svg">
<path fill-rule="evenodd" clip-rule="evenodd" d="M0.642857 0H8.35714C8.712 0 9 0.432 9 0.964286V8.03571C9 8.568 8.712 9 8.35714 9H0.642857C0.288 9 0 8.568 0 8.03571V0.964286C0 0.432 0.288 0 0.642857 0ZM0.642857 15H8.35714C8.712 15 9 14.664 9 14.25V11.75C9 11.336 8.712 11 8.35714 11H0.642857C0.288 11 0 11.336 0 11.75V14.25C0 14.664 0.288 15 0.642857 15ZM14.5 15H11.5C11.224 15 11 14.6123 11 14.1346V0.865385C11 0.387692 11.224 0 11.5 0H14.5C14.776 0 15 0.387692 15 0.865385V14.1346C15 14.6123 14.776 15 14.5 15Z" fill="#E3E8F4"/>
</svg>
