<svg width="239" height="236" viewBox="0 0 239 236" fill="none" xmlns="http://www.w3.org/2000/svg">
<g id="thinking (1)">
<path id="Path" opacity="0.054269" d="M40.4065 17.4524C22.5043 32.3654 11.9105 55.2931 10.8873 78.5446C10.2899 92.2391 12.7938 105.959 11.7071 119.622C9.66714 145.005 -4.66349 170.18 2.47958 194.605C9.81966 219.703 37.7119 233.531 63.8185 235.6C89.925 237.668 115.898 231.094 142.062 230.117C156.31 229.577 170.628 230.707 184.806 229.209C198.984 227.712 213.442 223.257 223.622 213.294C233.803 203.331 238.55 188.97 238.5 174.857C238.449 160.743 233.899 146.935 227.423 134.414C220.61 121.215 211.535 108.834 208.358 94.3205C203.909 73.8803 211.192 49.823 198.19 33.3997C190.131 23.2463 176.627 19.4831 164.044 16.3038C143.123 11.0304 121.719 3.58662 100.29 0.77538C89.5407 -0.74216 78.5933 -0.0270653 68.1336 2.87588C64.1362 3.99911 40.4065 12.0711 40.4065 17.4524Z" fill="#464375"/>
<path id="Oval" d="M159.5 86C181.591 86 199.5 68.0914 199.5 46C199.5 23.9086 181.591 6 159.5 6C137.409 6 119.5 23.9086 119.5 46C119.5 68.0914 137.409 86 159.5 86Z" fill="url(#paint0_radial)"/>
<path id="Oval_2" d="M118 211C169.086 211 210.5 202.493 210.5 192C210.5 181.507 169.086 173 118 173C66.9137 173 25.5 181.507 25.5 192C25.5 202.493 66.9137 211 118 211Z" fill="url(#paint1_linear)"/>
<path id="Path_2" d="M158.733 193.65C158.917 194.283 159.26 194.858 159.728 195.32C160.178 195.665 160.709 195.887 161.27 195.962C163.182 196.296 165.732 194.324 165.483 193.264C165.235 192.204 165.598 188.49 165.407 187.418C165.363 186.937 165.238 186.468 165.037 186.03C164.463 185.034 163.093 184.925 161.958 185.034C160.448 185.188 158.096 185.676 157.631 187.36C157.146 189.172 158.121 191.966 158.733 193.65Z" fill="white"/>
<path id="Path_3" d="M98.877 88.1075C96.7643 89.6642 96.1191 92.6458 96.7074 95.1942C97.2956 97.7427 98.8897 99.9396 100.572 101.948C104.897 107.121 110.021 111.581 115.754 115.161C117.841 116.461 120.08 117.672 122.535 117.942C125.292 118.243 128.031 117.314 130.657 116.448C131.888 116.107 133.049 115.553 134.085 114.81C135.113 113.894 135.905 112.746 136.394 111.464C137.7 108.362 138.408 105.045 138.481 101.685C138.646 97.2593 137.716 97.1903 136.16 93.0412C134.996 89.9027 133.105 86.2495 129.872 87.1346C121.219 89.4947 123.743 98.6842 123.749 102.858C120.896 99.5253 115.595 94.736 112.281 91.8549C109.548 89.4508 102.533 85.4209 98.877 88.1075Z" fill="#747474"/>
<path id="Path_4" opacity="0.500674" d="M98.877 88.1075C96.7643 89.6642 96.1191 92.6458 96.7074 95.1942C97.2956 97.7427 98.8897 99.9396 100.572 101.948C104.897 107.121 110.021 111.581 115.754 115.161C117.841 116.461 120.08 117.672 122.535 117.942C125.292 118.243 128.031 117.314 130.657 116.448C131.888 116.107 133.049 115.553 134.085 114.81C135.113 113.894 135.905 112.746 136.394 111.464C137.7 108.362 138.408 105.045 138.481 101.685C138.646 97.2593 137.716 97.1903 136.16 93.0412C134.996 89.9027 133.105 86.2495 129.872 87.1346C121.219 89.4947 123.743 98.6842 123.749 102.858C120.896 99.5253 115.595 94.736 112.281 91.8549C109.548 89.4508 102.533 85.4209 98.877 88.1075Z" fill="url(#paint2_linear)"/>
<path id="Path_5" d="M125.878 74.256C125.061 75.8248 125.821 77.8699 125.036 79.4514C124.564 80.2896 123.817 80.9345 122.924 81.2742C121.365 81.9475 119.593 82.0427 118.072 82.7858C116.724 83.4471 115.654 84.5734 115.055 85.9615C114.471 87.3588 114.345 89.0355 113.251 90.0772C111.938 91.3474 109.838 91.087 108.098 90.5916C106.903 90.255 105.634 89.7596 104.993 88.6862C104.626 87.9701 104.458 87.1665 104.509 86.3616C104.509 84.4181 105.081 82.5191 105.452 80.6137C105.986 77.8763 106.168 75.0753 106.803 72.357C107.438 69.6386 108.588 66.9456 110.674 65.1164C112.761 63.2873 117.343 58.5682 119.976 59.0319C122.49 59.4828 123.056 65.1418 124.464 67.2886C124.939 68.1061 125.359 68.9548 125.721 69.8291C126.607 71.7091 126.84 72.4205 125.878 74.256Z" fill="black"/>
<path id="Path_6" d="M122.306 59.9545C121.786 61.6716 120.129 62.7174 118.618 63.647C117.107 64.5766 115.476 65.6934 115.076 67.4428C114.822 68.5145 115.076 69.7281 114.441 70.6706C114.237 70.1915 113.949 69.754 113.591 69.3795C113.216 69.0053 112.67 68.8713 112.169 69.0309C111.651 69.3127 111.339 69.8736 111.369 70.4705C111.383 71.7713 112.306 72.8777 113.565 73.1043C112.834 74.181 112.36 75.4168 112.181 76.7129C111.997 78.0557 112.093 79.5469 111.255 80.5862C110.326 81.6708 108.725 81.8268 107.611 80.9413C107.423 81.3805 107.106 81.7501 106.703 82C105.631 81.4319 105.656 79.9149 105.434 78.7077C104.907 75.4799 101.924 73.227 100.933 70.1154C100.5 68.4311 100.391 66.6777 100.61 64.951C100.641 63.3043 100.966 61.677 101.568 60.1481C102.638 58.0534 104.41 56.418 106.564 55.5389C108.508 54.738 110.539 54.1746 112.613 53.8605C114.318 53.4427 116.052 53.1557 117.799 53.0019C121.024 52.8986 123.176 57.0882 122.306 59.9545Z" fill="#73C0FF"/>
<path id="Path_7" d="M151.742 130.081C152.382 130.074 153.02 130.175 153.626 130.381C154.177 130.631 154.676 130.983 155.096 131.418C159.976 135.999 161.452 143.057 162.678 149.641C164.742 160.685 166.805 171.78 167.086 183.01C167.144 185.224 168.038 187.239 167.003 189.191C165.968 191.142 161.222 191.334 159.133 190.618C157.044 189.901 157.561 189.063 156.718 186.996C155 182.811 152.572 178.972 150.164 175.133L141.361 161.165C139.955 158.938 138.493 156.647 136.34 155.125C133.312 152.987 129.415 152.7 125.774 152.028C122.132 151.356 118.191 149.929 116.517 146.621C113.521 140.677 117.494 132.589 123.87 131.834C133.171 130.714 142.351 129.703 151.742 130.081Z" fill="#171717"/>
<path id="Path_8" d="M151.237 130.08C151.869 130.073 152.497 130.175 153.096 130.381C153.639 130.63 154.13 130.981 154.545 131.415C159.357 135.987 160.812 143.03 162.022 149.601C164.057 160.623 166.091 171.695 166.368 182.902C166.425 185.111 166.841 187.027 165.82 188.981C164.8 190.935 161.619 191.395 159.553 190.686C157.486 189.977 156.976 188.943 156.145 186.855C154.45 182.704 152.056 178.873 149.681 175.041L141.001 161.102C139.615 158.879 138.173 156.593 136.05 155.074C133.064 152.941 129.221 152.653 125.631 151.983C122.04 151.312 118.153 149.889 116.503 146.587C113.548 140.655 117.467 132.584 123.753 131.83C132.925 130.713 141.977 129.704 151.237 130.08Z" fill="url(#paint3_linear)"/>
<path id="Path_9" d="M162.144 165.951C162.242 166.628 162.464 167.283 162.801 167.887C163.714 169.353 165.671 169.959 167.484 169.99C168.26 170.041 169.036 169.893 169.731 169.563C170.535 169.075 171.1 168.305 171.3 167.423C171.499 166.552 171.55 165.656 171.452 164.77C171.334 162.864 171.083 160.967 170.703 159.092C170.669 158.81 170.558 158.541 170.381 158.312C169.954 157.848 169.166 157.991 168.542 158.17C166.978 158.615 163.136 158.987 162.026 160.131C160.778 161.436 162.144 164.405 162.144 165.951Z" fill="#1C0C48"/>
<path id="Path_10" d="M170.302 167.072C169.534 167.316 168.781 167.604 168.046 167.934C167.07 168.278 166.026 168.374 165.005 168.215C163.905 168.037 162.561 167.647 161.863 168.522C161.492 169.138 161.4 169.888 161.612 170.578C161.859 171.933 162.227 173.262 162.711 174.55C162.857 175.014 163.085 175.446 163.384 175.827C164.131 176.676 165.388 176.778 166.525 176.823C170.527 177.059 174.538 177.059 178.539 176.823C179.74 176.733 181.216 176.363 181.48 175.169C181.563 174.503 181.385 173.831 180.984 173.298C179.79 171.382 177.905 170.105 175.957 169.097C174.254 168.215 172.256 166.645 170.302 167.072Z" fill="#383838"/>
<path id="Path_11" d="M166 192.06C165.346 192.254 164.704 192.485 164.078 192.751C163.248 193.023 162.361 193.097 161.493 192.967C160.561 192.823 159.416 192.511 158.809 193.213C158.493 193.709 158.415 194.311 158.596 194.866C158.808 195.951 159.12 197.017 159.528 198.05C159.655 198.417 159.85 198.759 160.104 199.059C160.73 199.738 161.806 199.822 162.758 199.858C166.162 200.047 169.574 200.047 172.978 199.858C173.998 199.786 175.25 199.486 175.482 198.53C175.556 197.996 175.405 197.455 175.062 197.028C173.977 195.555 172.498 194.388 170.781 193.652C169.361 192.967 167.658 191.711 166 192.06Z" fill="#383838"/>
<path id="Path_12" d="M103.923 83.6064C99.2529 85.572 95.8926 89.8096 93.3549 94.2258C87.2227 104.884 84.7357 117.201 82.3372 129.288C81.8436 131.79 81.3437 134.33 81.5462 136.876C81.6199 137.953 81.8634 139.01 82.2676 140.009C83.8244 143.717 87.9631 145.721 91.969 145.964C95.5002 146.187 98.9998 145.326 102.499 144.79C105.442 144.368 108.423 144.215 111.302 143.513C114.182 142.811 116.998 141.388 118.795 139.001C120.858 136.231 121.225 132.575 121.522 129.128L123.111 110.429C123.586 104.826 124.028 98.942 121.845 93.7855C120.331 90.2837 117.731 87.3723 114.435 85.489C111.308 83.6064 107.372 82.1194 103.923 83.6064Z" fill="#747474"/>
<path id="Path_13" d="M123.11 110.418L122.787 114.21C122.365 119.186 121.943 124.157 121.522 129.124C121.3 131.677 121.047 134.295 120.11 136.612C119.777 137.463 119.335 138.265 118.794 139C117.016 141.387 114.181 142.786 111.302 143.513C108.422 144.241 105.435 144.401 102.499 144.79C98.9931 145.294 95.4999 146.188 91.9688 145.965C87.9883 145.722 83.818 143.718 82.2613 140.008C81.8621 139.008 81.6208 137.95 81.5462 136.874C81.3437 134.32 81.8436 131.767 82.3372 129.283C84.7356 117.198 87.2226 104.87 93.3547 94.2088C95.8859 89.791 99.2526 85.552 103.929 83.5857C107.378 82.1301 111.308 83.6303 114.447 85.437C117.743 87.3203 120.344 90.2329 121.857 93.7364C124.028 98.9714 123.585 104.813 123.11 110.418Z" fill="url(#paint4_linear)"/>
<path id="Path_14" d="M123.493 108.808C123.431 110.593 123.362 112.377 123.3 114.161C122.884 119.075 122.467 123.985 122.051 128.89C121.833 131.412 121.583 133.997 120.659 136.286C118.998 137.944 116.451 138.493 114.104 138.922C113.844 139.049 113.535 139.019 113.305 138.844C113.074 138.668 112.961 138.377 113.011 138.089C112.524 132.282 114.522 126.57 114.884 120.75C115.141 116.569 114.557 112.378 113.167 108.43C112.387 106.211 107.679 99.7669 112.999 100.007C114.117 100.139 115.188 100.541 116.12 101.179C118.393 102.549 120.49 104.197 122.363 106.085C122.779 106.451 123.105 106.908 123.319 107.421C123.462 107.869 123.521 108.339 123.493 108.808Z" fill="url(#paint5_linear)"/>
<path id="Path_15" d="M124.694 82.6446C124.404 81.9861 124.441 81.2296 124.792 80.6018C125.19 80.1692 125.72 79.8809 126.299 79.782C127.189 79.5283 128.092 79.3071 129.002 79.1314C129.404 79.0229 129.821 78.9811 130.236 79.0078C131.23 79.1184 131.977 79.9381 132.621 80.6928C133.318 81.4153 133.869 82.2658 134.245 83.1976C134.482 84.0944 134.555 85.0269 134.459 85.9496L134.375 88.051C134.377 88.438 134.315 88.8226 134.193 89.1896C134.017 89.5929 133.731 89.9381 133.368 90.185C132.695 90.6343 131.919 90.9032 131.113 90.9657C130.197 91.0633 128.787 90.9982 128.19 90.159C127.8 89.619 127.923 88.7146 127.657 88.0836C126.864 86.1643 125.344 84.6224 124.694 82.6446Z" fill="black"/>
<path id="Path_16" d="M83.8058 141.53H83.5571L83.6974 140.658C82.6515 149.712 85.6553 160.565 95.279 163.269C103.57 165.595 111.523 165.653 119.514 162.981C126 160.822 132.148 156.484 137.18 151.852C141.523 147.854 144.877 142.882 149.335 139.037C150.375 140.678 151.886 141.805 153.028 143.362C154.45 145.284 154.609 147.412 155.381 149.577C156.197 151.884 157.651 153.863 158.64 156.087C160.649 160.572 161.504 162.699 166.631 162.705C168.34 162.705 169.093 163.013 170.234 161.725C172.097 159.617 171.389 153.684 171.268 151.166C170.828 142.273 169.507 132.938 166.414 124.564C164.705 119.944 162.588 115.395 159.118 111.865C154.444 107.137 149.176 109.033 144.125 112.025C137.97 115.677 132.479 121.136 127.364 126.178C125.247 128.261 123.908 130.132 121.37 131.842C118.557 133.764 115.815 135.225 112.824 136.853C104.367 141.453 93.1234 141.53 83.8058 141.53Z" fill="#5089E9"/>
<path id="Path_17" d="M154.45 186.274C154.378 187.132 154.226 187.98 153.998 188.81C152.36 194.738 146.587 198.814 140.572 200.221C134.557 201.629 128.267 200.855 122.144 200.037C108.463 198.205 31.0994 192.899 40.2498 102.607C41.3458 91.7283 48.0301 77.3442 58.4229 75.2585C60.4022 74.8667 62.4445 74.9209 64.4 75.417C86.116 80.7611 69.281 119.356 99.0896 132.992C107.947 137.043 115.338 143.826 124.431 147.312C140.667 153.557 150.557 171.516 150.557 171.516C152.685 176.188 154.858 181.279 154.45 186.274Z" fill="#46078D"/>
<path id="Path_18" d="M158.897 100.734C160.864 102.343 161.435 105.067 161.485 107.591C161.545 108.116 161.422 108.645 161.137 109.093C160.929 109.318 160.682 109.504 160.407 109.642C158.942 110.49 157.235 111.362 155.624 110.845C154.209 110.39 153.308 108.975 151.932 108.42C150.796 107.959 149.394 108.09 148.48 107.261C148.096 106.874 147.832 106.387 147.719 105.858C146.025 99.1325 154.571 97.2064 158.897 100.734Z" fill="black"/>
<path id="Path_19" d="M129.379 97.0251C130.064 97.6358 130.847 98.1246 131.694 98.4706C132.61 98.7277 133.568 98.7973 134.511 98.6753C139.985 98.2404 145.567 96.4239 150.857 97.9142C151.622 98.0714 152.321 98.4595 152.861 99.0271C153.311 99.6585 153.535 100.425 153.496 101.202C153.496 105.039 150.4 108.237 146.988 109.996C143.061 112.005 138.615 112.676 134.257 113.322C131.301 113.757 128.313 114.192 125.332 113.911C123.967 113.867 122.638 113.459 121.482 112.727C95.6969 93.9358 104.685 91.1408 106.436 85.7681C107.349 82.9602 118.849 88.5951 121.526 90.7378C124.203 92.8805 126.753 94.9272 129.379 97.0251Z" fill="#F3417C"/>
<path id="Path_20" d="M154.5 186.244C154.427 187.103 154.276 187.954 154.047 188.785C152.409 194.725 146.633 198.809 140.616 200.22C134.598 201.63 128.306 200.855 122.18 200.035C108.493 198.2 31.0958 192.883 40.2501 102.404C41.3465 91.5037 48.0338 77.09 58.4311 75C58.922 77.8586 56.3976 81.2826 55.4413 84.3635C52.3816 94.3624 51.7631 104.945 53.6372 115.23C54.6906 121.09 56.5751 126.771 59.2344 132.102C62.8744 139.35 67.8659 145.836 73.0423 152.093C76.9309 156.794 81.0363 161.47 86.2764 164.601C91.0129 167.435 96.4762 168.87 101.857 170.026C108.999 171.559 116.226 172.674 123.499 173.368C133.297 174.302 144.09 174.848 151.236 181.626C152.642 182.916 153.755 184.49 154.5 186.244Z" fill="url(#paint6_linear)"/>
<path id="Path_21" d="M172.5 35.6866C172.506 37.7759 172 39.8349 171.025 41.6841L165.678 55H152.587L147.617 40.9454C146.876 39.291 146.495 37.4986 146.5 35.6866C146.655 28.6354 152.43 23 159.5 23C166.57 23 172.345 28.6354 172.5 35.6866Z" fill="#747474"/>
<path id="Path_22" opacity="0.69" d="M172.5 35.6866C172.506 37.7759 172 39.8349 171.025 41.6841L165.678 55H152.587L147.617 40.9454C146.876 39.291 146.495 37.4986 146.5 35.6866C146.655 28.6354 152.43 23 159.5 23C166.57 23 172.345 28.6354 172.5 35.6866Z" fill="url(#paint7_radial)"/>
<path id="Path_23" d="M157.462 55C155.535 50.8956 154.523 46.4063 154.5 41.8553C154.5 40.8353 154.639 39.6344 155.519 39.1373C156.589 38.5304 157.912 39.4795 158.5 40.577C159.259 42.0349 159.374 43.7533 158.817 45.3029C158.184 44.3457 157.825 43.2282 157.779 42.0748C157.641 41.2282 157.693 40.3608 157.931 39.5376C158.186 38.7022 158.901 38.0995 159.754 38.001C161.019 37.9558 161.88 39.4278 162.02 40.732C162.182 42.2216 161.845 43.7235 161.064 44.993C160.514 43.2844 160.9 41.4062 162.076 40.067C162.458 39.6078 162.972 39.2826 163.545 39.1373C164.129 39.0009 164.737 39.2195 165.108 39.699C165.286 39.9875 165.395 40.3149 165.425 40.6545C165.76 43.1207 164.925 45.5999 163.874 47.8531C162.823 50.1063 161.557 52.2691 160.943 54.6836" stroke="white" stroke-width="0.79"/>
<rect id="Rectangle" x="151.5" y="55" width="15" height="7" rx="2.34" fill="#747474"/>
<rect id="Rectangle_2" x="151.5" y="55" width="15" height="7" rx="2.34" fill="url(#paint8_linear)"/>
<rect id="Rectangle_3" x="150.5" y="57" width="17" height="3" rx="1.5" fill="#747474"/>
<rect id="Rectangle_4" x="150.5" y="57" width="17" height="3" rx="1.5" fill="url(#paint9_linear)"/>
</g>
<defs>
<radialGradient id="paint0_radial" cx="0" cy="0" r="1" gradientUnits="userSpaceOnUse" gradientTransform="translate(159.5 46) scale(26.9517)">
<stop stop-color="white"/>
<stop offset="1" stop-color="white" stop-opacity="0.01"/>
</radialGradient>
<linearGradient id="paint1_linear" x1="-353.108" y1="96.9035" x2="-353.25" y2="291.116" gradientUnits="userSpaceOnUse">
<stop stop-color="#464375"/>
<stop offset="0.13" stop-color="#464375"/>
<stop offset="1" stop-opacity="0.01"/>
</linearGradient>
<linearGradient id="paint2_linear" x1="101.285" y1="123.264" x2="136.788" y2="107.089" gradientUnits="userSpaceOnUse">
<stop stop-color="#F3417C"/>
<stop offset="1" stop-color="#F3417C"/>
</linearGradient>
<linearGradient id="paint3_linear" x1="115.322" y1="158.398" x2="147.169" y2="208.887" gradientUnits="userSpaceOnUse">
<stop stop-color="#1C0C48"/>
<stop offset="0.13" stop-color="#1C0C48"/>
<stop offset="1" stop-opacity="0.01"/>
</linearGradient>
<linearGradient id="paint4_linear" x1="86.2851" y1="156.698" x2="127.106" y2="147.546" gradientUnits="userSpaceOnUse">
<stop stop-color="#F3417C"/>
<stop offset="1" stop-color="#F3417C"/>
</linearGradient>
<linearGradient id="paint5_linear" x1="151.438" y1="36.7898" x2="93.4408" y2="36.0602" gradientUnits="userSpaceOnUse">
<stop offset="0.01"/>
<stop offset="0.13" stop-opacity="0.69"/>
<stop offset="1" stop-opacity="0.01"/>
</linearGradient>
<linearGradient id="paint6_linear" x1="82.9703" y1="238.738" x2="173.426" y2="163.248" gradientUnits="userSpaceOnUse">
<stop stop-color="#46078D"/>
<stop offset="0.263725" stop-color="#46078D"/>
<stop offset="1" stop-color="#6737A1"/>
</linearGradient>
<radialGradient id="paint7_radial" cx="0" cy="0" r="1" gradientUnits="userSpaceOnUse" gradientTransform="translate(159.503 38.8607) scale(14.6787 18.0661)">
<stop offset="0.34" stop-color="white"/>
<stop offset="1" stop-color="white" stop-opacity="0.39"/>
</radialGradient>
<linearGradient id="paint8_linear" x1="151.5" y1="62.0016" x2="166.494" y2="62.0016" gradientUnits="userSpaceOnUse">
<stop offset="0.01"/>
<stop offset="0.13" stop-opacity="0.69"/>
<stop offset="1" stop-opacity="0.01"/>
</linearGradient>
<linearGradient id="paint9_linear" x1="150.5" y1="60" x2="167.5" y2="60" gradientUnits="userSpaceOnUse">
<stop offset="0.01"/>
<stop offset="0.13" stop-opacity="0.69"/>
<stop offset="1" stop-opacity="0.01"/>
</linearGradient>
</defs>
</svg>
