<svg width="63" height="50" viewBox="0 0 63 50" fill="none" xmlns="http://www.w3.org/2000/svg">
<path id="Shape" fill-rule="evenodd" clip-rule="evenodd" d="M21.6956 9.17969C24.4617 3.63281 30.2302 0 36.54 0C45.675 0 53.1169 7.38281 53.1169 16.4453C53.1169 16.6042 53.1051 16.7631 53.0929 16.9269C53.0875 16.9997 53.082 17.0734 53.0775 17.1484C58.6835 17.8125 63 22.5195 63 28.2031C63 34.3359 57.9649 39.3359 51.7781 39.3359H32.76V26.0938L36.8944 30.2344C37.1405 30.4785 37.4752 30.5859 37.8 30.5859C38.1248 30.5859 38.4595 30.4785 38.7056 30.2344C39.1978 29.7461 39.1978 28.9258 38.7056 28.4375L31.5 21.3281L24.2944 28.4375C23.8022 28.9258 23.8022 29.7461 24.2944 30.2344C24.7866 30.7227 25.6134 30.7227 26.1056 30.2344L30.24 26.0938V39.3359H12.1669C5.44852 39.3359 0 33.9307 0 27.2656C0 22.1777 3.26813 17.6221 8.0325 15.8984C8.34258 11.3477 12.1472 7.73438 16.8131 7.73438C18.5653 7.73438 20.2634 8.24219 21.6956 9.17969ZM30.24 39.3359V48.0859C30.24 48.7793 30.806 49.3359 31.5 49.3359C32.194 49.3359 32.76 48.7793 32.76 48.0859V39.3359H30.24Z" fill="#BABBCA"/>
</svg>
